<svg xmlns="http://www.w3.org/2000/svg" width="43" height="43" viewBox="0 0 43 43">
    <path fill="#303030" fill-rule="evenodd" d="M22.072 13.603c2.105 0 3.588 1.684 3.647 4.115.175.333.24.713.185 1.085-.014.544-.29 1.048-.74 1.353-.117.232-.225.454-.324.66-.206.427-.383.79-.538 1.049-.156.259-.395 1.057-.007 1.315.792.527 4.017 2.608 4.018 2.608.685.47 1.093 1.249 1.088 2.08v2.292h-3.215v-2.292c.002-1.12-.551-2.166-1.477-2.795-.001 0-2.828-1.823-3.833-2.485.015-.099.045-.195.089-.285.165-.275.355-.661.575-1.116l.225-.462c.53-.458.86-1.107.917-1.806.066-.477.002-.964-.186-1.408-.022-1.399-.61-2.729-1.63-3.686.385-.144.794-.22 1.206-.222zm-4.065 0c2.104 0 3.588 1.684 3.646 4.115.176.333.24.713.186 1.085-.015.544-.29 1.048-.741 1.353-.117.232-.224.454-.324.66-.206.427-.382.79-.538 1.049-.155.259-.394 1.057-.007 1.315.792.527 4.018 2.608 4.02 2.608.684.47 1.091 1.249 1.087 2.08v2.292H10.678v-2.292c-.006-.825.396-1.6 1.073-2.07.016-.01 3.241-2.091 4.033-2.618.388-.258.149-1.056-.008-1.316-.154-.257-.33-.62-.537-1.047-.1-.207-.207-.429-.323-.661-.452-.304-.728-.808-.741-1.352-.055-.374.011-.757.188-1.091.07-2.441 1.548-4.11 3.644-4.11z"/>
</svg>
