<svg xmlns="http://www.w3.org/2000/svg" data-laicon-version="9.0" viewBox="0 0 20 20"><g transform="translate(-2 -2)"><path d="M18.179 9.592a.171.171 0 0 1-.172.172h-1.718v.662h1.718c.095 0 .172.078.172.172v.639a.171.171 0 0 1-.172.172h-1.718v.663h1.718c.095 0 .172.077.172.172v.638a.171.171 0 0 1-.172.17h-2.528a.172.172 0 0 1-.172-.17v-3.93c0-.093.077-.171.172-.171h2.528c.095 0 .172.078.172.172v.639zm-3.485 3.29a.172.172 0 0 1-.172.17h-.635a.214.214 0 0 1-.045-.004l-.003-.001-.012-.004-.005-.002-.008-.003-.009-.004-.005-.003-.011-.007-.002-.001a.208.208 0 0 1-.045-.044l-1.798-2.43v2.333a.172.172 0 0 1-.172.17h-.639a.172.172 0 0 1-.172-.17v-3.93c0-.093.077-.171.172-.171h.65l.009.002c.003 0 .005 0 .008.002.003 0 .006 0 .01.002h.006l.01.005c.002 0 .004 0 .006.002.003 0 .007.003.01.004.002 0 .004.002.005.003.004 0 .007.003.01.005l.006.003a.05.05 0 0 1 .008.007c.002 0 .003.002.005.003l.01.008.002.003a.057.057 0 0 1 .011.01l.001.002.014.018 1.797 2.427V8.953c0-.094.077-.172.172-.172h.639c.094 0 .172.078.172.172v3.929zm-4.347 0a.17.17 0 0 1-.171.17h-.639a.172.172 0 0 1-.171-.17v-3.93c0-.093.077-.171.171-.171h.639c.095 0 .171.078.171.172v3.929zm-1.522 0a.172.172 0 0 1-.171.17H6.125a.172.172 0 0 1-.172-.17v-3.93c0-.093.077-.171.172-.171h.638c.095 0 .172.078.172.172v3.119h1.719c.094 0 .171.077.171.172v.638zM21 10.728c0-4.027-4.037-7.303-9-7.303-4.962 0-9 3.276-9 7.303 0 3.61 3.202 6.634 7.527 7.206.293.063.692.193.793.444.091.227.059.584.029.813l-.128.77c-.04.228-.181.89.779.486.961-.404 5.183-3.052 7.072-5.225h-.001C20.375 13.792 21 12.34 21 10.728z"/></g></svg>