<svg width="32" height="32" fill="none" xmlns="http://www.w3.org/2000/svg">
    <path fill-rule="evenodd" clip-rule="evenodd" d="M26.305 15.992c0 5.696-4.616 10.312-10.313 10.312-5.696 0-10.312-4.616-10.312-10.312S10.296 5.68 15.993 5.68c5.696 0 10.312 4.618 10.312 10.312z" fill="#fff"/>
    <path clip-rule="evenodd" d="M26.305 15.992c0 5.696-4.616 10.312-10.313 10.312-5.696 0-10.312-4.616-10.312-10.312S10.296 5.68 15.993 5.68c5.696 0 10.312 4.618 10.312 10.312z" stroke="#000" stroke-width=".667" stroke-linecap="round" stroke-linejoin="round"/>
    <path fill-rule="evenodd" clip-rule="evenodd" d="M24.177 17.21c0 .404-.628.73-1.402.73-.773 0-1.401-.328-1.401-.73 0-.403.628-.73 1.401-.73.774 0 1.402.327 1.402.73zM10.773 17.333c0 .404-.627.73-1.4.73-.775 0-1.402-.328-1.402-.73 0-.403.627-.73 1.401-.73s1.401.326 1.401.73z" fill="#FFC7CA"/>
    <g opacity=".01">
        <path fill-rule="evenodd" clip-rule="evenodd" d="M20.524 13.268a5.642 5.642 0 0 1 .025.142c.021.128.034.258.037.386.004.084.006.167.006.252 0 .113-.002.22-.006.328a3.194 3.194 0 0 1-.263 1.049c-.046.089-.096.18-.15.268-.275.46-.611.688-1.006.688-.4 0-.74-.229-1.019-.688-.279-.453-.42-1.003-.42-1.646 0-.224.016-.438.05-.639.059-.386.182-.73.37-1.033.28-.448.62-.672 1.02-.672.024 0 .049.003.074.009h.005c.063.062.125.12.189.176.183.146.384.263.6.352a.248.248 0 0 1 .07.034c.021.028.045.062.07.101.16.27.277.567.348.893zm-1.359.117v.025a1.528 1.528 0 0 1-.144.638c-.096.185-.21.278-.343.278-.13 0-.245-.093-.345-.278a1.495 1.495 0 0 1-.137-.638v-.025c0-.263.045-.484.137-.663.096-.19.212-.287.345-.287.133 0 .247.097.343.287.096.18.144.4.144.663zm.408.302a.356.356 0 0 0-.088.244.37.37 0 0 0 .088.253.26.26 0 0 0 .2.1.25.25 0 0 0 .202-.1.395.395 0 0 0 .081-.253.37.37 0 0 0-.081-.244.243.243 0 0 0-.201-.108c-.077-.002-.143.035-.201.108zm-.294 1.2a.387.387 0 0 1 .157-.16.391.391 0 0 1 .124-.026c.105 0 .196.062.276.185a.8.8 0 0 1 .112.437v.102a.74.74 0 0 1-.112.345c-.08.123-.17.185-.276.185-.108 0-.2-.063-.28-.185a.838.838 0 0 1-.113-.445c0-.174.038-.32.112-.437z" fill="#000"/>
        <path fill-rule="evenodd" clip-rule="evenodd" d="M19.573 13.688c.058-.074.124-.109.2-.109.08 0 .146.037.202.108a.38.38 0 0 1 .081.244.385.385 0 0 1-.081.253.25.25 0 0 1-.201.1.262.262 0 0 1-.201-.1.37.37 0 0 1-.087-.253c0-.096.028-.178.087-.243zm-.407-.278a1.578 1.578 0 0 1-.145.638c-.096.185-.21.278-.343.278-.13 0-.243-.093-.345-.278a1.495 1.495 0 0 1-.137-.638v-.025c0-.263.046-.483.137-.663.096-.19.21-.287.345-.287.134 0 .247.097.343.287.096.18.145.4.145.663v.025zm.27 1.318a.345.345 0 0 1 .124-.025c.105 0 .196.062.276.185a.8.8 0 0 1 .112.437v.102a.748.748 0 0 1-.112.345c-.08.122-.17.184-.276.184-.108 0-.202-.062-.28-.184a.842.842 0 0 1-.113-.445c0-.174.038-.32.112-.437a.373.373 0 0 1 .157-.162z" fill="#fff"/>
        <path d="M19.247 12.047a.333.333 0 1 0 0-.667v.667zm-.005-.334-.07.326a.334.334 0 0 0 .07.008v-.334zm-1.094.664.283.176-.283-.176zm-.37 1.033.33.055v-.005l-.33-.05zm.37 2.285.285-.173v-.002l-.285.175zm2.026 0-.286-.171.286.171zm.15-.268.297.149.006-.011-.304-.138zm.594-1.02a.333.333 0 1 0-.664-.059l.664.058zm-.72-1.068a.333.333 0 1 0 .652-.143l-.652.143zm-.024-.962.285-.172-.004-.007-.281.179zm.197-.302a.333.333 0 1 0-.533.4l.533-.4zm.548 1.707a.333.333 0 1 0-.666.028l.666-.028zm-.666.582a.333.333 0 0 0 .666.023l-.666-.023zm.6-1.155a.334.334 0 0 0-.657.117l.656-.117zm-.304.201.329-.055-.002-.01-.327.065zm-.296.395a.333.333 0 1 0 .667-.018l-.667.018zm-1.006-2.425h-.005v.667h.005v-.667zm.065.007a.691.691 0 0 0-.145-.016v.667c-.006 0-.006 0 .005.001l.14-.652zm-.145-.016c-.551 0-.984.319-1.302.83l.566.352c.24-.386.487-.515.736-.515v-.667zm-1.302.83a3.028 3.028 0 0 0-.416 1.159l.659.1c.052-.346.161-.647.323-.907l-.566-.353zm-.415 1.154a4.188 4.188 0 0 0-.055.693h.667c0-.208.015-.403.045-.583l-.657-.11zm-.055.693c0 .693.152 1.306.47 1.822l.567-.35c-.24-.39-.37-.877-.37-1.472h-.667zm.468 1.82c.317.52.75.849 1.304.849v-.667c-.245 0-.492-.13-.734-.528l-.57.346zm1.304.849c.553 0 .982-.33 1.293-.851l-.572-.342c-.238.397-.48.526-.72.526v.667zm1.293-.85a4.37 4.37 0 0 0 .161-.291l-.596-.299c-.04.079-.086.162-.137.247l.572.343zm.167-.303c.16-.352.255-.74.291-1.158l-.664-.058c-.03.354-.11.667-.234.94l.607.277zm.223-2.367a3.257 3.257 0 0 0-.39-.992l-.572.344c.142.236.247.498.31.79l.652-.143zm-.395-1a1.975 1.975 0 0 0-.084-.122l-.533.4c.015.02.033.047.055.08l.562-.357zm-.202 1.613c.004.079.005.158.005.238h.667c0-.09-.002-.178-.006-.266l-.666.028zm.005.238c0 .109-.001.214-.005.316l.666.023c.004-.11.006-.223.006-.339h-.667zm-.062-.722.026.15.654-.131c-.009-.043-.012-.07-.024-.136l-.656.117zm.024.139c.019.113.03.227.033.34l.667-.018a3.166 3.166 0 0 0-.042-.432l-.658.11z" fill="#000"/>
        <path d="M19.924 12.556a.333.333 0 0 0 .36-.56l-.36.56zm.11-.314-.126.308c.015.006.03.011.046.015l.08-.323zm-.6-.352-.222.25.015.011.206-.261zm.04-.419a.333.333 0 0 0-.458.485l.458-.485zm1.245 1.248a.333.333 0 0 0 .032-.666l-.032.666zm-.518-.76a.333.333 0 0 0-.194.637l.194-.638zm-1.202-.017a.333.333 0 1 0 .485-.457l-.485.457zm-.052-1.258a.333.333 0 1 0-.599.295l.599-.295zm1.337 1.311a.571.571 0 0 0-.169-.077l-.161.647a.175.175 0 0 1-.035-.012l.005.003.36-.56zm-.123-.062a2.16 2.16 0 0 1-.521-.305l-.413.523c.209.165.435.298.681.4l.253-.618zm-.507-.293c-.056-.05-.111-.104-.18-.169l-.458.485c.06.056.129.123.197.183l.441-.499zm1.097.413a2.267 2.267 0 0 1-.55-.095l-.194.638c.226.069.464.11.712.123l.032-.666zm-1.267-.568a3.265 3.265 0 0 1-.538-.8l-.598.294c.183.37.398.694.65.963l.486-.457zM20.68 14.32a.333.333 0 0 0-.14.652l.14-.652zm1.05.421a.333.333 0 1 0-.402-.532l.402.532zm-1.077-1.101a.333.333 0 1 0-.086.66l.086-.66zm1.044.426a.333.333 0 0 0-.336-.576l.336.576zm-.2-.706a.333.333 0 1 0-.399-.533l.4.533zm-.978-.354a.333.333 0 0 0 .01.666l-.01-.666zm.02 1.966c.393.084.877.006 1.19-.23l-.4-.533c-.134.1-.412.162-.65.111l-.14.652zm.027-.671c.45.059.79-.036 1.131-.235l-.336-.576a1.007 1.007 0 0 1-.708.15l-.086.66zm.532-1.474a.82.82 0 0 1-.247.135c-.08.026-.18.041-.332.044l.01.666c.192-.003.362-.023.525-.075.166-.053.306-.133.444-.237l-.4-.533z" fill="#000"/>
        <path d="M20.495 14.696a.333.333 0 1 0 .183-.64l-.183.64zm.169-.646a.333.333 0 0 0-.354.566l.354-.566zm-.14-.449a.333.333 0 0 0 0-.667v.667zm-.1-.667a.333.333 0 1 0 0 .667v-.667zm.11 1.191a.333.333 0 1 0 .105-.658l-.104.658zm.108-.658a.333.333 0 1 0-.31.59l.31-.59zm.036.588a.126.126 0 0 1-.014-.005c-.002 0-.002 0 0 0l-.354.566c.06.037.125.063.185.08l.183-.64zm-.154-1.12H20.424v.666H20.525v-.667zm.115.532h.005c.001.002 0 .002-.002 0l-.31.59a.65.65 0 0 0 .203.068l.104-.658z" fill="#000"/>
        <path fill-rule="evenodd" clip-rule="evenodd" d="M11.713 13.268h.1c-.029 0-.062 0-.098.002l-.01.056-.015.086a2.834 2.834 0 0 0-.039.384m.062-.528c.071-.326.189-.623.35-.891l-.35.89zm.35-.891c.025-.04.049-.073.07-.102l-.07.102zm.07-.102a.25.25 0 0 1 .07-.033l-.07.033zm.07-.033c.216-.09.415-.207.6-.353l-.6.353zm.6-.353c.048-.041.095-.086.143-.132l-.143.133zm.143-.132.046-.043-.046.043zm.046-.043h.005-.005zm.005 0a.353.353 0 0 1 .075-.01l-.075.01zm.075-.01c.4 0 .74.225 1.019.673l-1.02-.672zm1.019.673c.188.302.311.647.37 1.033l-.37-1.033zm.37 1.033c.034.2.05.414.05.638l-.05-.638zm.05.638c0 .644-.14 1.194-.42 1.647l.42-1.647zm-.42 1.647c-.28.459-.619.688-1.02.688l1.02-.688zm-1.02.688c-.396 0-.732-.23-1.006-.688l1.007.688zm-1.006-.688a4.048 4.048 0 0 1-.149-.268l.15.268zm-.149-.268a3.192 3.192 0 0 1-.263-1.05l.263 1.05zm-.263-1.05zm0 0a9.68 9.68 0 0 1-.005-.327l.005.327zm-.005-.327c0-.083.001-.167.005-.252l-.005.252zm.005-.252v-.002.002zm.098-.036z" fill="#000"/>
        <path d="M11.984 14.347a.333.333 0 0 0-.664.058l.664-.058zm-.069 1.078-.303.138.007.016.296-.154zm.15.268-.286.172.285-.172zm2.025 0-.284-.174v.001l.284.173zm.37-2.285-.33.05.001.005.329-.055zm-.37-1.033-.283.176.283-.176zm-1.094-.663v.333a.334.334 0 0 0 .07-.007l-.07-.326zm-.005-.334a.333.333 0 0 0 0 .667v-.667zm-.59 1.098a.333.333 0 0 0-.534-.4l.533.4zm-.337-.1-.28-.178-.004.005.284.174zm-.676.82a.333.333 0 1 0 .652.143l-.652-.142zm-.07 1.19a.333.333 0 1 0 .667-.021l-.666.022zm.667-.576a.333.333 0 0 0-.666-.028l.666.028zm-.666-.023a.333.333 0 0 0 .666.018l-.666-.018zm.37-.377-.327-.065-.002.01.33.055zm.353-.084a.333.333 0 1 0-.656-.117l.656.117zm-.722 1.079c.036.418.131.806.292 1.158l.607-.276a2.86 2.86 0 0 1-.235-.94l-.664.058zm.3 1.174c.048.093.1.19.159.286l.571-.343a4.758 4.758 0 0 1-.14-.251l-.59.308zm.159.286c.312.52.74.85 1.292.85v-.667c-.238 0-.482-.128-.72-.526l-.572.343zm1.292.85c.555 0 .987-.328 1.304-.848l-.57-.347c-.242.398-.489.528-.734.528v.667zm1.303-.847c.317-.516.469-1.129.469-1.821h-.667c0 .594-.13 1.08-.37 1.472l.568.35zm.469-1.821c0-.24-.017-.472-.054-.694l-.658.11c.03.18.045.375.045.584h.667zm-.054-.689a3.028 3.028 0 0 0-.416-1.16l-.566.353c.162.26.27.561.323.907l.66-.1zm-.416-1.16c-.318-.51-.75-.829-1.302-.829v.667c.249 0 .496.13.736.515l.566-.352zm-1.302-.829a.69.69 0 0 0-.145.017l.14.652c.011-.003.011-.002.005-.002v-.666zm-.075.01h-.005v.666h.005v-.667zm-1.129.697a1.945 1.945 0 0 0-.084.122l.563.358c.021-.034.04-.06.054-.08l-.533-.4zm-.087.127a3.212 3.212 0 0 0-.392.994l.652.142c.064-.293.166-.555.31-.789l-.57-.347zm.205 2.162a9.27 9.27 0 0 1-.005-.317h-.667c0 .116.002.228.006.339l.666-.023zm-.005-.317c0-.078.002-.157.005-.238l-.666-.028c-.004.09-.006.178-.006.266h.667zm.005-.243c.003-.113.014-.227.033-.34l-.658-.11a3.165 3.165 0 0 0-.041.432l.666.018zm.031-.33c.01-.046.02-.114.026-.149l-.656-.117c-.012.065-.015.094-.024.136l.654.13z" fill="#000"/>
        <path d="M13.226 11.95a.333.333 0 0 0-.471-.472l.471.471zm-.424-.06.208.26.01-.008-.218-.252zm-.601.352.08.323a.338.338 0 0 0 .046-.015l-.126-.308zm-.25-.247a.333.333 0 1 0 .36.56l-.36-.56zm.28.599a.333.333 0 0 0-.196-.637l.197.637zm-.745-.543a.333.333 0 0 0 .032.666l-.032-.666zm2.403-1.072a.333.333 0 1 0-.598-.295l.598.295zm-1.136.506a.333.333 0 1 0 .486.457l-.486-.457zm.002-.007c-.058.058-.114.11-.17.159l.434.505c.072-.061.14-.126.207-.193l-.471-.471zm-.16.15a2.124 2.124 0 0 1-.52.305l.252.617c.246-.1.474-.234.682-.4l-.415-.521zm-.475.29a.571.571 0 0 0-.169.077l.36.56c.008-.003.008-.004.006-.002a.177.177 0 0 1-.035.012l-.162-.647zm-.085.04a2.204 2.204 0 0 1-.55.093l.033.666c.246-.012.484-.052.714-.123l-.197-.637zm1.256-1.274c-.16.323-.339.59-.538.801l.486.457c.252-.269.467-.593.65-.963l-.598-.295zM10.908 14.21a.333.333 0 1 0-.402.531l.402-.532zm.788.762a.333.333 0 0 0-.14-.652l.14.652zm-.82-1.48a.333.333 0 1 0-.337.576l.336-.576zm.792.81a.334.334 0 0 0-.083-.66l.083.66zm.04-.631a.333.333 0 0 0 .01-.667l-.01.667zm-.567-.845a.333.333 0 1 0-.402.532l.402-.532zm-.635 1.915c.315.238.798.315 1.19.23l-.14-.65c-.237.05-.514-.011-.648-.112l-.402.533zm.033-.673c.343.2.682.291 1.13.235l-.084-.662a1.016 1.016 0 0 1-.71-.149l-.336.576zm1.18-1.064a1.137 1.137 0 0 1-.333-.044.807.807 0 0 1-.245-.134l-.402.532c.138.103.278.184.443.237.163.053.334.072.526.075l.01-.666z" fill="#000"/>
        <path d="M11.914 14.623a.333.333 0 0 0-.326-.58l.326.58zm-.368-.563a.333.333 0 1 0 .21.632l-.21-.633zm.267-.459a.333.333 0 0 0 0-.667v.667zm-.1-.667a.333.333 0 1 0 0 .667v-.667zm.18 1.13a.333.333 0 1 0-.285-.603l.286.602zm-.294-.597a.333.333 0 1 0 .104.658l-.104-.658zm-.011.575a.263.263 0 0 1-.042.018l.21.632a.903.903 0 0 0 .158-.069l-.326-.58zm.225-1.107H11.713v.666H11.814v-.667zm-.205.526a.218.218 0 0 1-.017.008l.008-.002.104.658a.692.692 0 0 0 .19-.062l-.285-.602z" fill="#000"/>
        <path fill-rule="evenodd" clip-rule="evenodd" d="M12.139 13.385c0-.263.046-.483.137-.663.092-.19.204-.287.338-.287.133 0 .25.097.35.287.092.18.137.4.137.663 0 .253-.046.473-.137.663-.1.185-.217.278-.35.278-.13 0-.242-.093-.338-.278a1.529 1.529 0 0 1-.137-.663zm1.376.303a.24.24 0 0 1 .201-.109c.075 0 .142.037.201.108.05.068.075.148.075.244a.413.413 0 0 1-.075.253.259.259 0 0 1-.2.1.25.25 0 0 1-.202-.1.37.37 0 0 1-.087-.253.344.344 0 0 1 .087-.243zm.262 2.082c-.08.123-.173.185-.281.185-.109 0-.201-.063-.276-.185a.799.799 0 0 1-.12-.445c0-.174.04-.32.12-.437.075-.123.167-.185.276-.185.108 0 .202.062.28.185a.8.8 0 0 1 .113.437.811.811 0 0 1-.112.445z" fill="#fff"/>
    </g>
    <ellipse cx="13.067" cy="14.168" rx="1.508" ry="2.472" fill="#000"/>
    <path fill-rule="evenodd" clip-rule="evenodd" d="M13.262 13.599c-.073.421-.386.72-.7.666-.313-.053-.51-.44-.438-.862.071-.421.386-.72.7-.667.315.053.511.441.438.863z" fill="#fff"/>
    <circle cx="12.693" cy="15.293" fill="#fff" r=".354"/>
    <path d="M14.595 9.51s-.701 1.215-2.547 1.074M17.422 9.51s.7 1.215 2.546 1.074M14.758 16.966c.813-1.826 1.721-1.835 2.73-.026M18.468 18.359s-1.145 1.255-2.191 1.255c-1.268 0-2.28-1.255-2.28-1.255" stroke="#000" stroke-width=".667" stroke-linecap="round" stroke-linejoin="round"/>
    <ellipse cx="19.194" cy="14.168" rx="1.508" ry="2.472" fill="#000"/>
    <path fill-rule="evenodd" clip-rule="evenodd" d="M19.39 13.599c-.074.421-.387.72-.702.666-.313-.053-.508-.44-.437-.862.073-.421.386-.72.7-.667.315.053.511.441.438.863zM19.174 15.293a.354.354 0 1 1-.708 0 .354.354 0 0 1 .708 0z" fill="#fff"/>
    <ellipse cx="13.067" cy="14.168" rx="1.508" ry="2.472" fill="#000"/>
    <path fill-rule="evenodd" clip-rule="evenodd" d="M13.262 13.599c-.073.421-.386.72-.7.666-.313-.053-.51-.44-.438-.862.071-.421.386-.72.7-.667.315.053.511.441.438.863z" fill="#fff"/>
    <circle cx="12.693" cy="15.293" fill="#fff" r=".354"/>
    <path fill-rule="evenodd" clip-rule="evenodd" d="M15.621 21.834h.36c.536.032.976.122 1.319.274.338-.12.507-.308.507-.562 0-.392-.388-.674-1.163-.852a8.158 8.158 0 0 0-.313-.062c.114.021.218.04.313.062.775.178 1.163.46 1.163.852 0 .254-.17.442-.507.562-.343-.152-.784-.242-1.32-.274h-.359zm-2.404-.173c.078-.108.163-.211.258-.304.599-.63 1.431-.887 2.5-.773l.36.046c.234-.062.465-.094.695-.094.61 0 1.118.113 1.53.343.433.213.757.533.97.96.254.505.276.758.368 1.71 1.337.532 2.141.963 2.323 2.062.181 1.097-.676 2.313-1.274 2.587-1.145.422-1.666.395-2.358.121-.914-.47-1.305-.405-1.426-.825a6.237 6.237 0 0 1-.582-.352c-.234-.173-.147-.503-.256-.784-.032-.084.162-.372.136-.471a1.245 1.245 0 0 1-.047-.196c-.197.032.093-.002-.12.018.005.04.037.142.042.178.027.094 0 .216 0 .295.005.26-.067.4-.192.613-.105.162-.24.361-.416.502-.553.66-.573.439-1.213.727-.617.284-.642.126-1.174.306-.531.18-.962.027-1.558-.162-.595-.19-.883-.139-1.184-.782-.3-.644-.624-1.032-.24-1.973.382-.94 1.156-1.701 2.132-1.998m4.81-1.307a.76.76 0 0 1 .157.078c.365.208.546.459.546.75 0 .287-.206.493-.617.617.197.14.297.285.297.43v.102c-.052.313-.28.518-.686.617a.54.54 0 0 1 .195.422c0 .032-.005.06-.016.085-.057.23-.308.388-.75.477-.01 0-.016.003-.016.007 0-.006.005-.008.016-.008.442-.088.692-.247.75-.476a.227.227 0 0 0 .016-.085.54.54 0 0 0-.195-.422c.405-.1.634-.304.686-.617v-.101c0-.146-.1-.29-.297-.43.41-.125.617-.331.617-.618 0-.291-.183-.542-.546-.75a.68.68 0 0 0-.156-.078zm-1.772 1.084c.478-.016.88.018 1.202.102-.322-.084-.724-.118-1.202-.102zm-.056 1.227h.297c.406 0 .737.05.993.148-.256-.1-.585-.148-.993-.148h-.296z" fill="#fff"/>
    <path d="M15.621 21.5a.333.333 0 1 0 0 .667V21.5zm.36.334L16 21.5h-.02v.333zm1.32.274-.135.305a.333.333 0 0 0 .245.009l-.11-.314zm-.657-1.414.075-.325h-.001l-.074.325zm-.313-.062.06-.328-.011-.002-.049.33zm-.36-.047.037-.331-.036.331zm-2.5.774.236.236.006-.006-.242-.23zm-.258.304.27.195-.27-.195zm-1.057 1.697a.333.333 0 1 0 .657.116l-.657-.116zm7.409.224a.333.333 0 1 0 .663-.065l-.663.065zm-.037-1.743-.298.149.299-.15zm-.969-.96-.162.29.015.008.147-.298zm-2.312-.572a.333.333 0 0 0 .171.645l-.17-.645zm1.172 1.486a.333.333 0 1 0-.234.625l.234-.625zm.04.39-.185.278a.358.358 0 0 0 .02.012l.165-.29zm-.072 1.368-.096-.319a.333.333 0 0 0-.097.59l.193-.27zm.297.532.33.054a.328.328 0 0 0 .004-.054h-.334zm-.686.617-.08-.324a.333.333 0 0 0-.14.575l.22-.25zm.18.507-.307-.131a.329.329 0 0 0-.017.05l.323.08zm-.751.477v.333a.335.335 0 0 0 .066-.007l-.066-.326zm-.35.007a.333.333 0 1 0 .667 0h-.666zm-.56-2.834a.333.333 0 1 0 .023.666l-.022-.666zm1.214.435.106-.316a.406.406 0 0 0-.022-.007l-.084.323zm.497.55a.333.333 0 0 0 .318-.585l-.318.585zm-1.754.242a.333.333 0 1 0 0 .667v-.667zm1.29.48.16-.29a.354.354 0 0 0-.042-.02l-.119.31zm.066.422a.333.333 0 1 0 .336-.575l-.337.575zm-1.209-2.821h.36V21.5h-.36v.667zm.34 0c.513.03.91.116 1.205.246l.268-.61c-.391-.173-.873-.269-1.434-.302l-.04.665zm1.45.255c.201-.071.383-.173.517-.322a.813.813 0 0 0 .212-.554h-.666a.147.147 0 0 1-.041.108.587.587 0 0 1-.244.14l.222.628zm.73-.876c0-.327-.17-.587-.428-.775-.247-.18-.588-.309-.995-.402l-.148.65c.368.084.609.187.75.29.13.095.154.172.154.237h.666zm-1.423-1.177a8.56 8.56 0 0 0-.326-.065l-.122.655c.116.022.213.04.3.06l.148-.65zm-.338-.067a10.052 10.052 0 0 0-.372-.048l-.073.663c.126.013.242.029.347.044l.098-.66zm-.373-.048c-1.143-.122-2.09.153-2.777.875l.483.46c.51-.537 1.232-.778 2.223-.672l.071-.663zm-2.771.87a2.803 2.803 0 0 0-.293.344l.54.39c.07-.095.143-.183.224-.263l-.471-.472zm-.293.344c-.19.264-.35.491-.479.78-.129.29-.222.627-.308 1.112l.657.116c.08-.457.162-.735.26-.956.099-.22.22-.4.41-.662l-.54-.39zm7.285 2.05c-.093-.945-.115-1.258-.402-1.827l-.595.3c.222.441.239.632.334 1.593l.663-.065zm-.401-1.826a2.421 2.421 0 0 0-1.12-1.11l-.295.597c.368.182.638.45.818.81l.597-.297zm-1.105-1.102c-.474-.265-1.044-.386-1.694-.386v.667c.57 0 1.02.106 1.369.3l.325-.581zm-1.694-.386c-.26 0-.52.037-.78.105l.17.645c.21-.056.412-.083.61-.083v-.667zm.157 2.216a.428.428 0 0 1 .089.043l.37-.555a1.086 1.086 0 0 0-.225-.113l-.234.625zm.108.055c.31.177.378.337.378.461h.667c0-.459-.295-.8-.714-1.04l-.33.58zm.378.461a.172.172 0 0 1-.057.134c-.05.05-.147.111-.323.164l.193.638a1.42 1.42 0 0 0 .602-.33.837.837 0 0 0 .252-.606h-.667zm-.477.889c.079.056.12.1.142.13.019.028.015.036.015.029h.667c0-.31-.21-.54-.437-.702l-.387.543zm.157.159V24.086h.667V23.983h-.667zm.004.047a.315.315 0 0 1-.104.194.766.766 0 0 1-.333.153l.16.648a1.42 1.42 0 0 0 .618-.304.98.98 0 0 0 .317-.583l-.658-.108zm-.577.922a.208.208 0 0 1 .082.17h.667a.872.872 0 0 0-.31-.672l-.439.502zm.082.17c0-.005.001-.022.011-.045l.613.262a.547.547 0 0 0 .043-.216h-.667zm-.006.006c-.005.02-.059.143-.493.23l.132.653c.452-.09.9-.284 1.008-.723l-.647-.16zm-.427.223a.36.36 0 0 0-.161.038.34.34 0 0 0-.188.303h.666c0 .181-.132.269-.18.293a.307.307 0 0 1-.137.033v-.667zm-.887-1.826c.46-.016.827.018 1.107.09l.168-.645c-.363-.094-.8-.128-1.297-.112l.022.666zm1.085.084c.314.105.507.182.603.235l.318-.586a4.916 4.916 0 0 0-.709-.281l-.212.632zm-1.151 1.143h.297v-.667h-.297v.667zm.297 0c.382 0 .668.047.873.125l.238-.622c-.307-.118-.682-.17-1.111-.17v.667zm.83.106c.082.045.158.088.229.129l.336-.575c-.075-.045-.156-.09-.242-.138l-.322.584z" fill="#000"/>
    <path d="M12.486 23.416s-2.141.706-2.23 2.565c-.096 1.995 1.69 2.758 3.563 2.247 1.523-.414 2.723-1.335 2.592-2.537" stroke="#000" stroke-width=".667" stroke-linecap="round" stroke-linejoin="round"/>
    <path d="M19.896 23.552s2.39.593 2.321 2.454c-.08 2.142-1.993 2.637-3.63 2.315-1.38-.272-1.957-.888-2.36-1.679" stroke="#000" stroke-width=".667" stroke-linecap="round" stroke-linejoin="round"/>
</svg>
