<svg width="13" height="13" viewBox="0 0 13 13" xmlns="http://www.w3.org/2000/svg">
<path fill-rule="evenodd" clip-rule="evenodd" d="M9.22213 2.64893C9.5056 2.82856 9.77059 3.04068 10.0095 3.27956C10.8701 4.14014 11.3433 5.28356 11.3433 6.50023C11.3433 7.7169 10.8701 8.86032 10.0095 9.72027C9.83079 9.89943 9.6367 10.0639 9.43124 10.2107L9.22213 10.3515L8.77878 9.65148C9.01129 9.50433 9.2285 9.33106 9.42406 9.13487C10.1279 8.43098 10.5152 7.49586 10.5152 6.50023C10.5152 5.5046 10.1279 4.56885 9.42406 3.86496C9.27692 3.71829 9.1183 3.5838 8.95011 3.46365L8.77878 3.34835L9.22213 2.64893ZM4.30954 3.05153C4.77994 4.06718 5.10763 4.88979 5.29261 5.51937C5.85895 5.68421 6.58491 5.96764 7.4683 6.36745L7.75824 6.50023C6.7426 6.97063 5.91998 7.29832 5.2904 7.4833C5.12794 8.04097 4.85097 8.7529 4.46105 9.61754L4.30954 9.94893L4.17675 9.65899C3.77695 8.7756 3.49352 8.04964 3.32648 7.48109C2.76881 7.31863 2.05688 7.04166 1.19224 6.65174L0.86084 6.50023L1.15079 6.36745C2.03417 5.96764 2.76014 5.68421 3.32868 5.51717C3.49352 4.95083 3.77695 4.22486 4.17675 3.34148L4.30954 3.05153ZM8.2016 4.265C8.36594 4.36946 8.5201 4.49241 8.65833 4.63127C9.68899 5.66194 9.68899 7.33853 8.65833 8.36983C8.56575 8.46241 8.46666 8.54791 8.36219 8.62539L8.2016 8.73547L7.75824 8.03604C7.87099 7.96406 7.97737 7.87934 8.07356 7.78379C8.78063 7.07608 8.78063 5.92438 8.07292 5.21668C8.00922 5.15298 7.94099 5.09409 7.86899 5.04058L7.75824 4.96442L8.2016 4.265Z" />
</svg>
