<svg xmlns="http://www.w3.org/2000/svg" width="24" height="24" viewBox="0 0 24 24">
    <g fill="none" fill-rule="evenodd">
        <g fill="#C8C8C8" fill-rule="nonzero">
            <g>
                <g>
                    <path d="M21.866.6c.847 0 1.533.687 1.533 1.533v19.734c0 .846-.686 1.533-1.533 1.533H2.134c-.847 0-1.533-.687-1.533-1.533V2.133C.6 1.287 1.287.6 2.134.6h19.732zm-.2 1.733H2.332v19.332h19.332V2.333zm-10.294 6.37l5.118 7.978H6.253l5.119-7.978zm4.808-1.434c.793 0 1.436.642 1.436 1.433 0 .792-.643 1.433-1.436 1.433-.794 0-1.437-.641-1.437-1.433 0-.791.643-1.433 1.437-1.433z" transform="translate(-69.000000, -674.000000) translate(42.000000, 649.000000) translate(27.000000, 25.000000)"/>
                </g>
            </g>
        </g>
    </g>
</svg>
