<svg width="24" height="24" viewBox="0 0 24 24" fill="none" xmlns="http://www.w3.org/2000/svg">
    <path d="M11.479 4.971c1.664-1.925 4.658-2.24 6.686-.702.988.749 1.603 1.823 1.73 3.021a4.32 4.32 0 0 1-.908 3.123l-.156.19-8.75 10.125-1.1-.834 8.78-10.158c.566-.655.828-1.47.74-2.3A3.009 3.009 0 0 0 17.3 5.341c-1.382-1.049-3.414-.88-4.615.352l-.134.147-6.762 7.828a1.86 1.86 0 0 0-.458 1.421c.054.513.316.971.744 1.295a2.16 2.16 0 0 0 1.54.418 2.17 2.17 0 0 0 1.296-.597l.123-.131 6.763-7.83a.707.707 0 0 0-.109-1.042.885.885 0 0 0-1.098.046l-.078.078-5.367 6.213-1.043-.954 5.34-6.128a2.316 2.316 0 0 1 3.113-.326 2.034 2.034 0 0 1 .415 2.854l-.102.127-6.763 7.83a3.579 3.579 0 0 1-2.348 1.21 3.578 3.578 0 0 1-2.55-.696 3.192 3.192 0 0 1-1.269-2.22 3.176 3.176 0 0 1 .638-2.26l.142-.176 6.762-7.829z" fill="#303030"/>
</svg>
