<svg width="32" height="32" fill="none" xmlns="http://www.w3.org/2000/svg">
    <path fill-rule="evenodd" clip-rule="evenodd" d="M26.305 15.992c0 5.696-4.616 10.312-10.313 10.312-5.696 0-10.312-4.616-10.312-10.312S10.296 5.68 15.993 5.68c5.696 0 10.312 4.618 10.312 10.312z" fill="#fff"/>
    <path clip-rule="evenodd" d="M26.305 15.992c0 5.696-4.616 10.312-10.313 10.312-5.696 0-10.312-4.616-10.312-10.312S10.296 5.68 15.993 5.68c5.696 0 10.312 4.618 10.312 10.312z" stroke="#000" stroke-width=".667" stroke-linecap="round" stroke-linejoin="round"/>
    <g opacity=".01" fill-rule="evenodd" clip-rule="evenodd" fill="#FFC7CA">
        <path d="M24.177 17.21c0 .404-.628.73-1.402.73-.773 0-1.401-.328-1.401-.73 0-.403.628-.73 1.401-.73.774.001 1.402.327 1.402.73zM10.771 17.333c0 .404-.627.73-1.4.73-.774 0-1.402-.328-1.402-.73 0-.403.628-.73 1.401-.73.774 0 1.402.326 1.402.73z"/>
    </g>
    <ellipse cx="13.067" cy="15.057" rx="1.508" ry="2.472" fill="#000"/>
    <path fill-rule="evenodd" clip-rule="evenodd" d="M13.262 14.488c-.073.421-.386.72-.7.667-.315-.054-.51-.441-.438-.863.073-.421.386-.72.7-.667.316.054.511.441.438.863z" fill="#fff"/>
    <circle cx="12.693" cy="16.183" fill="#fff" r=".354"/>
    <ellipse cx="19.194" cy="15.057" rx="1.508" ry="2.472" fill="#000"/>
    <path fill-rule="evenodd" clip-rule="evenodd" d="M19.39 14.488c-.074.421-.387.72-.701.667-.315-.054-.51-.441-.438-.863.073-.421.386-.72.7-.667.316.055.511.441.438.863zM19.174 16.183a.354.354 0 1 1-.708 0 .354.354 0 0 1 .708 0z" fill="#fff"/>
    <path d="M14.521 10.307s-.738 1.832-2.678 1.618M17.495 10.307s.738 1.832 2.678 1.618M14.758 17.856c.813-1.827 1.721-1.836 2.73-.027M14.262 20.742s1.499-1.933 1.933-1.933c.432 0 2.01 1.933 2.01 1.933" stroke="#000" stroke-width=".667" stroke-linecap="round" stroke-linejoin="round"/>
    <path fill-rule="evenodd" clip-rule="evenodd" d="M13.138 17.884c0 .644-.738 1.167-1.649 1.167-.91 0-1.648-.523-1.648-1.167 0-.643.738-1.166 1.648-1.166.91 0 1.649.523 1.649 1.166z" fill="#97DFFF"/>
    <path fill-rule="evenodd" clip-rule="evenodd" d="M11.331 17.392c.03.17-.115.337-.324.373-.208.037-.402-.071-.432-.242-.03-.17.116-.338.324-.373.208-.038.402.07.432.242z" fill="#fff"/>
    <path clip-rule="evenodd" d="M13.138 17.884c0 .644-.738 1.167-1.649 1.167-.91 0-1.648-.523-1.648-1.167 0-.643.738-1.166 1.648-1.166.91 0 1.649.523 1.649 1.166z" stroke="#39F" stroke-width=".667"/>
    <path fill-rule="evenodd" clip-rule="evenodd" d="M22.626 17.884c0 .644-.738 1.167-1.648 1.167-.91 0-1.649-.523-1.649-1.167 0-.643.738-1.166 1.649-1.166.91 0 1.648.523 1.648 1.166z" fill="#97DFFF"/>
    <path fill-rule="evenodd" clip-rule="evenodd" d="M20.82 17.392c.03.17-.116.337-.324.373-.208.037-.402-.071-.432-.242-.03-.17.115-.338.323-.373.208-.038.402.07.432.242z" fill="#fff"/>
    <path clip-rule="evenodd" d="M22.626 17.884c0 .644-.738 1.167-1.648 1.167-.91 0-1.649-.523-1.649-1.167 0-.643.738-1.166 1.649-1.166.91 0 1.648.523 1.648 1.166z" stroke="#39F" stroke-width=".667"/>
</svg>
