<svg width="18" height="18" viewBox="0 0 18 18" fill="none" xmlns="http://www.w3.org/2000/svg">
<path d="M7.43 13.505C7.43 14.1733 6.88325 14.72 6.215 14.72C5.54675 14.72 5 14.1733 5 13.505C5 12.8368 5.54675 12.29 6.215 12.29C6.88325 12.29 7.43 12.8368 7.43 13.505ZM6.215 7.645C5.54675 7.645 5 8.19175 5 8.86C5 9.52825 5.54675 10.075 6.215 10.075C6.88325 10.075 7.43 9.52825 7.43 8.86C7.43 8.19175 6.88325 7.645 6.215 7.645ZM6.215 3C5.54675 3 5 3.54675 5 4.215C5 4.88325 5.54675 5.43 6.215 5.43C6.88325 5.43 7.43 4.88325 7.43 4.215C7.43 3.54675 6.88325 3 6.215 3ZM10.86 5.43C11.5283 5.43 12.075 4.88325 12.075 4.215C12.075 3.54675 11.5283 3 10.86 3C10.1918 3 9.645 3.54675 9.645 4.215C9.645 4.88325 10.1918 5.43 10.86 5.43ZM10.86 7.645C10.1918 7.645 9.645 8.19175 9.645 8.86C9.645 9.52825 10.1918 10.075 10.86 10.075C11.5283 10.075 12.075 9.52825 12.075 8.86C12.075 8.19175 11.5283 7.645 10.86 7.645ZM10.86 12.29C10.1918 12.29 9.645 12.8368 9.645 13.505C9.645 14.1733 10.1918 14.72 10.86 14.72C11.5283 14.72 12.075 14.1733 12.075 13.505C12.075 12.8368 11.5283 12.29 10.86 12.29Z" fill="#C8C8C8"/>
</svg>
