<svg xmlns="http://www.w3.org/2000/svg" width="16" height="16" viewBox="0 0 16 16">
    <g fill="#C8C8C8" stroke="#C8C8C8" stroke-width=".3">
        <path d="M7.4 4.507c-1.217.002-2.203.989-2.205 2.207H6.24c0-.642.52-1.163 1.16-1.166.392-.002.764.167 1.02.463.172.217.232.503.16.77-.08.337-.286.48-.646.714-.644.302-1.055.949-1.054 1.66v.268h1.04v-.269c0-.4.166-.521.574-.782.543-.276.943-.77 1.099-1.36.143-.577.01-1.187-.36-1.652-.454-.542-1.125-.855-1.832-.853h0zm.011 5.698c-.397 0-.72.322-.72.72 0 .397.323.72.72.72.398 0 .72-.323.72-.72 0-.398-.322-.72-.72-.72z" transform="translate(1)"/>
        <path d="M7.4.6C3.313.6 0 3.913 0 8s3.313 7.4 7.4 7.4 7.4-3.313 7.4-7.4C14.796 3.915 11.485.604 7.4.6zm0 13.76c-3.512 0-6.359-2.848-6.358-6.36 0-3.511 2.847-6.358 6.359-6.358 3.511 0 6.359 2.846 6.359 6.358-.004 3.51-2.85 6.356-6.36 6.36h0z" transform="translate(1)"/>
    </g>
</svg>
