<svg width="32" height="32" fill="none" xmlns="http://www.w3.org/2000/svg">
    <path fill-rule="evenodd" clip-rule="evenodd" d="M5.676 15.868c-.068 5.694 4.493 10.366 10.19 10.434 5.694.067 10.366-4.494 10.433-10.188.068-5.694-4.494-10.366-10.19-10.433-5.696-.07-10.366 4.492-10.433 10.187z" fill="#fff"/>
    <g opacity=".01" stroke="#141011" stroke-width=".667" stroke-linecap="round" stroke-linejoin="round">
        <path d="m13.917 9.454 1.5 3.3M18.22 9.506l-1.585 3.263"/>
    </g>
    <g opacity=".01" fill-rule="evenodd" clip-rule="evenodd" fill="#EFC2C7">
        <path d="M8.349 17.04c-.006.404.619.738 1.392.747.774.009 1.405-.31 1.41-.713.006-.404-.618-.738-1.392-.747-.774-.009-1.405.311-1.41.713zM20.792 17.198c-.005.404.619.738 1.392.747.774.01 1.405-.31 1.41-.713.006-.404-.618-.738-1.392-.747-.773-.009-1.405.312-1.41.713z"/>
    </g>
    <g opacity=".01">
        <path fill-rule="evenodd" clip-rule="evenodd" d="M13.342 12.609s-.636.532-.679 1.766c-.021.63-.023 1.65.493 1.906.506.25.867-.073 1.015-.398.148-.326.438-1.47-.053-2.577-.3-.67-.776-.697-.776-.697z" fill="#141011"/>
        <path d="M13.343 12.609s-.637.531-.68 1.766c-.02.63-.023 1.65.493 1.906.507.25.868-.073 1.015-.398.148-.326.438-1.471-.053-2.577-.299-.67-.775-.697-.775-.697-1.489-.192-1.62 1.454-1.62 1.454" stroke="#141011" stroke-width=".667" stroke-linecap="round" stroke-linejoin="round"/>
        <path fill-rule="evenodd" clip-rule="evenodd" d="M19.012 12.682s-.636.532-.68 1.766c-.02.63-.022 1.65.494 1.906.506.25.867-.073 1.015-.398.148-.326.438-1.47-.053-2.577-.297-.67-.776-.697-.776-.697z" fill="#141011"/>
        <path d="M19.013 12.682s-.637.531-.68 1.766c-.021.63-.023 1.65.493 1.906.507.25.868-.073 1.015-.398.148-.326.438-1.471-.053-2.577-.297-.67-.775-.697-.775-.697-1.489-.192-1.62 1.454-1.62 1.454" stroke="#141011" stroke-width=".667" stroke-linecap="round" stroke-linejoin="round"/>
    </g>
    <g opacity=".01">
        <path d="m13.745 18.48 4.42.054s.07 1.777-.345 3.276c-.306 1.097-.874 2.045-1.928 2.032-1.053-.012-1.599-.973-1.878-2.079-.382-1.508-.269-3.282-.269-3.282z" fill="#CB5735"/>
        <path d="M15.893 23.842c-1.053-.012-1.6-.974-1.878-2.079.59-.604 1.373-.75 1.911-.743.54.007 1.386.212 1.894.79-.307 1.097-.875 2.045-1.927 2.032z" fill="#E58F95"/>
        <path d="M18.165 18.534s.012.318-.004.797l-4.43-.054c-.005-.478.015-.796.015-.796l4.419.053z" fill="#fff"/>
        <path clip-rule="evenodd" d="M18.165 18.534s.219 5.337-2.273 5.308c-2.491-.03-2.146-5.36-2.146-5.36l4.419.052z" stroke="#141011" stroke-width=".667" stroke-linecap="round" stroke-linejoin="round"/>
    </g>
    <path d="M17.595 14.367c.951-.14 1.917-.066 2.87.03v-.444c-.564.064-1.131.029-1.697.059-.512.026-1.122.085-1.552.39-.158.113-.13.444.112.415a14.069 14.069 0 0 1 3.142-.025v-.444a15.27 15.27 0 0 0-3.1.539c-.193.055-.229.398 0 .428.991.133 1.989-.203 2.972-.014l.059-.438c-.49.047-.982.077-1.469.145a7.53 7.53 0 0 0-1.423.34c-.275.093-.162.472.118.428.926-.148 1.847-.07 2.78-.01l-.06-.438c-.972.135-1.957.168-2.902.457-.227.069-.199.47.059.437.97-.123 1.935-.096 2.908-.023.284.021.284-.423 0-.445-.973-.072-1.937-.097-2.908.024l.059.437c.944-.288 1.931-.322 2.902-.457.261-.036.176-.421-.059-.438-.974-.062-1.926-.127-2.897.027l.118.429a7.33 7.33 0 0 1 1.376-.335c.462-.064.932-.09 1.396-.133.23-.021.324-.386.059-.437-.992-.19-1.98.147-2.972.014v.428a14.765 14.765 0 0 1 2.98-.522c.29-.02.284-.415 0-.445a13.963 13.963 0 0 0-3.142.025l.112.414c.399-.283.971-.316 1.444-.334.529-.02 1.057.005 1.581-.053.285-.032.289-.416 0-.445-.997-.1-1.991-.16-2.987-.014-.12.018-.183.167-.155.274.037.126.158.172.276.154zM11.327 14.503c.989-.175 2.015-.273 3.002-.04v-.428c-1.081.155-2.182.158-3.247.423-.217.053-.207.37 0 .429.256.073.53.014.79-.006.28-.02.561-.033.842-.042a19.045 19.045 0 0 1 1.686.034v-.445c-1.001.07-1.999.2-2.986.388-.242.046-.19.465.059.437 1.03-.123 2.068-.24 3.103-.108V14.7a37.698 37.698 0 0 0-3.421.509c-.244.048-.19.451.058.437l1.636-.101c.507-.032 1.035-.102 1.537.009v-.429l-3.041.434c-.246.036-.19.459.058.437 1.009-.087 2.022-.172 3.034-.078v-.444a19.483 19.483 0 0 0-3.185.482c-.282.067-.158.476.118.428 1.049-.18 2.114-.231 3.176-.164.286.018.284-.425 0-.444-.084-.005-.167-.01-.25-.018-.287-.02-.285.425 0 .445.083.005.166.01.25.017v-.444a14.198 14.198 0 0 0-3.295.18l.117.428a18.627 18.627 0 0 1 3.066-.466c.288-.02.284-.418 0-.444-1.012-.095-2.026-.01-3.034.078l.059.437 3.04-.434c.221-.032.205-.384 0-.428-.524-.114-1.056-.063-1.586-.029-.567.036-1.136.07-1.703.105l.058.438a36.954 36.954 0 0 1 3.303-.493c.288-.03.283-.409 0-.444-1.035-.132-2.074-.015-3.104.108l.06.438a24.31 24.31 0 0 1 2.866-.372c.286-.02.286-.427 0-.445a18.17 18.17 0 0 0-2.428 0c-.24.016-.54.095-.773.027v.428c1.063-.263 2.166-.268 3.247-.423.223-.032.201-.38 0-.428-1.069-.253-2.168-.15-3.238.039-.272.048-.153.476.126.427z" fill="#141011"/>
    <path d="M13.404 10.22s-1.461.2-2.036 1.293M18.112 10.162s1.026-.013 2.069 1.241M13.492 18.73s2.561 3.357 5.166-.159" stroke="#000" stroke-width=".667" stroke-linecap="round" stroke-linejoin="round"/>
    <path d="M17.332 17.533s-.627-1.359-1.348-1.368c-.72-.009-1.382 1.334-1.382 1.334" stroke="#141011" stroke-width=".667" stroke-linecap="round" stroke-linejoin="round"/>
    <path clip-rule="evenodd" d="M5.676 15.868c-.068 5.694 4.493 10.366 10.19 10.434 5.694.067 10.366-4.494 10.433-10.188.068-5.694-4.494-10.366-10.19-10.433-5.696-.07-10.366 4.492-10.433 10.187z" stroke="#141011" stroke-width=".667" stroke-linecap="round" stroke-linejoin="round"/>
    <path fill-rule="evenodd" clip-rule="evenodd" d="M4.085 17.53c-.005-.145-.363-1.637-.727-2.245-.226-.36-.429-1.419-.429-1.426a1.53 1.53 0 0 1 .13-.878c.17-.37.503-.605.994-.703l.062-.009c.562-.087 1.51.456 1.809.865.396.38.482.87.672 1.435.109.265.189.558.237.878.056.372.096.62.1.971" fill="#fff"/>
    <path d="M4.062 17.533a3.379 3.379 0 0 0-.037-.396c-.093-.603-.594-1.921-.841-2.61-.256-.716-.228-1.205-.027-1.548.23-.393.601-.582 1.051-.622.807-.075 1.257.288 1.649.684.466.471.807 1.586.935 2.294.066.361.14.816.146 1.158" stroke="#000" stroke-width=".667" stroke-linecap="round" stroke-linejoin="round"/>
    <path fill-rule="evenodd" clip-rule="evenodd" d="M9.13 17.853c.017-.01.57.075.774.34.253.329.205.748.16 1.005-.044.255-.373.666-.558.825.155.067.336.167.505.368.224.266.295.79.222 1.042-.067.233-.21.578-.668.825.24.82.089 1.339-.036 1.549-.174.279-.665.553-1.517.684-.222.034-1.081.155-1.485.201-.403.045-1.275-.03-2.093-.384-.935-.466-1.325-1.287-1.632-2.315-.187-.622-.642-2.96-.395-3.896.238-.945.841-1.498 1.463-1.855.317-.181.74-.413 1.663-.708.733-.227 1.108-.275 1.55-.35.444-.075 1.25-.213 1.863-.007.444.15.797.675.918 1.214.168.756-.358 1.267-.571 1.391-.216.126-.635-.105-1.044-.04-.58.088-1.226.49-2.179.538" fill="#fff"/>
    <path d="M9.12 17.649c.016-.011.635.192.893.418.379.332.299 1.177.15 1.417-.138.23-.374.437-.659.537.155.067.336.167.505.368.224.267.295.79.222 1.042-.067.233-.21.578-.668.825.24.82.089 1.34-.036 1.549-.174.28-.665.553-1.517.685-.222.034-1.081.154-1.485.2-.403.045-1.275-.03-2.093-.384-.935-.465-1.325-1.287-1.632-2.315-.187-.622-.642-2.959-.395-3.896.238-.944.841-1.497 1.463-1.855.317-.181.74-.412 1.663-.707.733-.228 1.108-.276 1.551-.35.443-.075 1.248-.214 1.862-.008.444.15.797.676.918 1.215.168.755-.369 1.06-.582 1.186-.215.126-.624.1-1.033.163-.58.09-.509.087-1.418.22" stroke="#000" stroke-width=".667" stroke-linecap="round" stroke-linejoin="round"/>
    <path d="M9.64 20.01c-.038.036-.086-.01-.134.013-.162.085-.505.089-1.05.172-.664.103-.597.066-1.255.162M7.563 22.656c.675-.048.84-.096 1.323-.194.272-.05.496-.119.674-.208" stroke="#000" stroke-width=".667" stroke-linecap="round" stroke-linejoin="round"/>
</svg>
