<svg xmlns="http://www.w3.org/2000/svg" width="20" height="22" viewBox="0 0 20 22">
    <g fill="none" fill-rule="evenodd">
        <path d="M0 0.008H20V20.008H0z" transform="translate(0 .992)"/>
        <path fill="#F5F5F5" fill-rule="nonzero" d="M17 8.408c.835 0 1.52.639 1.593 1.454l.007.146v6c0 .834-.639 1.52-1.454 1.593l-.146.007H8c-.835 0-1.52-.64-1.593-1.455l-.007-.145v-6c0-.835.639-1.52 1.454-1.594L8 8.408h9zm0 1.2H8c-.193 0-.355.137-.392.319l-.008.08v6c0 .194.137.355.32.392l.08.009h9c.193 0 .355-.138.392-.32l.008-.08v-6c0-.221-.18-.4-.4-.4zM7.372 1.082l2.934 2.463-2.462 2.934-.843-.707 1.366-1.628C6.552 4.335 4.924 5.314 4 6.804c-.708 1.139-.932 2.459-.672 3.712l.058.25H2.133c-.204-.955-.178-1.961.108-2.949.738-2.544 3.042-4.392 5.79-4.747L6.665 1.925l.707-.843z" transform="translate(0 .992)"/>
    </g>
</svg>
