<svg width="32" height="32" viewBox="0 0 32 32" fill="none" xmlns="http://www.w3.org/2000/svg">
    <path fill-rule="evenodd" clip-rule="evenodd" d="M26.304 15.992c0 5.695-4.617 10.312-10.312 10.312-5.696 0-10.312-4.617-10.312-10.312 0-5.695 4.617-10.312 10.312-10.312 5.695 0 10.312 4.617 10.312 10.312z" fill="#fff"/>
    <path clip-rule="evenodd" d="M26.304 15.992c0 5.695-4.617 10.312-10.312 10.312-5.696 0-10.312-4.617-10.312-10.312 0-5.695 4.617-10.312 10.312-10.312 5.695 0 10.312 4.617 10.312 10.312z" stroke="#000" stroke-width=".667" stroke-linecap="round" stroke-linejoin="round"/>
    <path d="M14.627 15.9c.812-1.827 1.722-1.835 2.73-.027" stroke="#000" stroke-width=".667" stroke-linecap="round" stroke-linejoin="round"/>
    <path fill-rule="evenodd" clip-rule="evenodd" d="M19.076 9.677c-1.162 0-2.072 1.292-2.072 2.941 0 1.65.91 2.942 2.072 2.942.59 0 1.13-.332 1.523-.934.354-.543.549-1.256.549-2.008 0-1.65-.91-2.941-2.072-2.941zm0 .444c.899 0 1.627 1.118 1.627 2.497 0 1.379-.728 2.497-1.627 2.497-.9 0-1.627-1.118-1.628-2.497 0-1.38.729-2.497 1.628-2.497z" fill="#000"/>
    <path fill-rule="evenodd" clip-rule="evenodd" d="M18.376 12.618c0 .76.313 1.375.7 1.375.387 0 .7-.615.7-1.375s-.313-1.375-.7-1.375c-.386 0-.7.616-.7 1.375z" fill="#000"/>
    <path clip-rule="evenodd" d="M18.376 12.618c0 .76.313 1.375.7 1.375.387 0 .7-.615.7-1.375s-.313-1.375-.7-1.375c-.386 0-.7.616-.7 1.375z" stroke="#000" stroke-width=".667"/>
    <path fill-rule="evenodd" clip-rule="evenodd" d="M15.961 17.042c-1.862 0-3.371 1.736-3.371 3.877s1.51 3.877 3.371 3.877c1.862 0 3.371-1.736 3.371-3.877s-1.509-3.877-3.37-3.877z" fill="#D14334"/>
    <mask id="fn5da5e5xa" style="mask-type:alpha" maskUnits="userSpaceOnUse" x="12" y="17" width="8" height="8">
        <path fill-rule="evenodd" clip-rule="evenodd" d="M12.65 20.978c0 2.141 1.51 3.877 3.372 3.877 1.861 0 3.37-1.736 3.37-3.877 0-2.142-1.509-3.877-3.37-3.877-1.862 0-3.372 1.736-3.372 3.877z" fill="#fff"/>
    </mask>
    <g mask="url(#fn5da5e5xa)">
        <path fill-rule="evenodd" clip-rule="evenodd" d="M21.97 26.573c0 2.608-2.663 4.723-5.949 4.723-3.285 0-5.949-2.115-5.949-4.723 0-2.61 2.664-4.724 5.95-4.724 3.285 0 5.949 2.115 5.949 4.724z" fill="#FF9A91"/>
    </g>
    <path fill-rule="evenodd" clip-rule="evenodd" d="M13.148 18.477s1.529-1.381 2.793-1.381c1.264 0 2.712.99 2.793 1.38h-5.587z" fill="#fff"/>
    <path clip-rule="evenodd" d="M19.393 20.919c0 2.14-1.51 3.877-3.371 3.877-1.862 0-3.372-1.736-3.372-3.877 0-2.142 1.51-3.878 3.372-3.878 1.862 0 3.371 1.736 3.371 3.878z" stroke="#000" stroke-width=".667" stroke-linecap="round" stroke-linejoin="round"/>
    <path fill-rule="evenodd" clip-rule="evenodd" d="M12.818 9.677c-1.162 0-2.072 1.292-2.072 2.94 0 .753.195 1.466.548 2.01.393.601.934.933 1.524.933 1.161 0 2.072-1.293 2.072-2.942 0-1.65-.91-2.941-2.072-2.941zm0 .444c.899 0 1.627 1.118 1.627 2.497 0 1.379-.728 2.497-1.627 2.497-.9 0-1.628-1.118-1.627-2.497 0-1.379.728-2.497 1.627-2.497z" fill="#000"/>
    <path fill-rule="evenodd" clip-rule="evenodd" d="M13.518 12.618c0 .76-.313 1.375-.7 1.375-.386 0-.7-.615-.7-1.375s.313-1.375.7-1.375c.387 0 .7.616.7 1.375z" fill="#000"/>
    <path clip-rule="evenodd" d="M13.518 12.618c0 .76-.313 1.375-.7 1.375-.386 0-.7-.615-.7-1.375s.313-1.375.7-1.375c.387 0 .7.616.7 1.375z" stroke="#000" stroke-width=".667"/>
</svg>
