<svg width="11" height="11" viewBox="0 0 11 11" xmlns="http://www.w3.org/2000/svg">
<path fill-rule="evenodd" clip-rule="evenodd" d="M8.6705 2.38695C8.43959 2.15604 8.18343 1.95099 7.90942 1.77734L7.48085 2.45345C7.7056 2.59569 7.91496 2.76379 8.10462 2.95283C8.78503 3.63325 9.15941 4.5378 9.15941 5.50023C9.15941 6.46267 8.78503 7.3666 8.10462 8.04702C7.91558 8.23667 7.7056 8.40416 7.48085 8.5464L7.90942 9.22312C8.18343 9.04948 8.44021 8.84381 8.6705 8.6129C9.50239 7.78163 9.9599 6.67633 9.9599 5.50023C9.9599 4.32413 9.50239 3.21884 8.6705 2.38695ZM7.36441 3.69359C7.23079 3.55935 7.08178 3.44051 6.92291 3.33953L6.49434 4.01563C6.60395 4.08521 6.70616 4.16711 6.79853 4.25947C7.48264 4.94358 7.48264 6.05688 6.79914 6.74099C6.70616 6.83335 6.60333 6.91525 6.49434 6.98483L6.92291 7.66094C7.08178 7.56057 7.23017 7.44173 7.36441 7.30749C8.36071 6.31057 8.36071 4.68989 7.36441 3.69359ZM4.87433 2.2954C4.94187 2.23072 5.04121 2.21321 5.12661 2.24895C5.21238 2.28539 5.26812 2.36937 5.26812 2.46264V8.53747C5.26812 8.63074 5.21238 8.71471 5.12661 8.75116C5.09731 8.76367 5.06658 8.76974 5.03585 8.76974C4.97689 8.76974 4.91864 8.74723 4.87433 8.70471L3.11513 7.00983H1.10508C0.97679 7.00983 0.872803 6.90584 0.872803 6.77755V4.22255C0.872803 4.09462 0.97679 3.99064 1.10508 3.99064H3.11513L4.87433 2.2954Z" />
</svg>
