<svg xmlns="http://www.w3.org/2000/svg" width="43" height="43" viewBox="0 0 43 43">
    <path fill="#303030" fill-rule="evenodd" stroke="#303030" stroke-width=".3" d="M19.007 13.253c-1.002 0-1.857.398-2.47 1.089-.62.699-.99 1.695-1.041 2.941-.162.306-.223.657-.171 1.018.012.495.263.954.725 1.288.117.233.224.456.324.663.204.421.378.78.531 1.035.102.17.237.548.239.886.001.267-.081.502-.277.632-.719.478-3.443 2.237-4.035 2.619-.632.44-1.01 1.167-1.004 1.943v2.143h14.325l-.275-1.362c-.794-.023-1.547-.272-2.183-.697-.668-.447-1.207-1.087-1.529-1.862-.306-.738-.385-1.53-.257-2.284-.326-.212-.597-.39-.763-.5-.195-.13-.278-.365-.276-.632.001-.338.136-.716.238-.885.153-.255.328-.615.531-1.036.1-.207.208-.43.375-.72.41-.278.662-.737.676-1.25.05-.341-.009-.69-.187-1.06-.028-1.177-.398-2.174-1.02-2.876-.613-.692-1.47-1.093-2.476-1.093zM26.5 19.95c.98 0 1.868.397 2.51 1.04.643.642 1.04 1.53 1.04 2.51 0 .782-.253 1.504-.68 2.09h0l2.322 2.324-.778.778-2.323-2.323c-.587.428-1.31.681-2.091.681-.98 0-1.868-.397-2.51-1.04-.643-.642-1.04-1.53-1.04-2.51 0-.98.397-1.868 1.04-2.51.642-.643 1.53-1.04 2.51-1.04zm0 1.1c-.677 0-1.289.274-1.732.718-.444.443-.718 1.055-.718 1.732s.274 1.289.718 1.732c.443.444 1.055.718 1.732.718s1.289-.274 1.732-.718c.444-.443.718-1.055.718-1.732s-.274-1.289-.718-1.732c-.443-.444-1.055-.718-1.732-.718z"/>
</svg>
