<svg xmlns="http://www.w3.org/2000/svg" data-laicon-version="9.0" viewBox="-13 -10 43 43"><g transform="translate(-2 -2)"><path d="M13.014 15.326h2.846a452.794 452.794 0 0 1-3.085-1.906c-.078-.05-.279-.18-.26-.62.012-.32.138-.655.25-.83.172-.273.37-.658.6-1.11.114-.228.24-.473.375-.73.325-.18.695-.542.825-1.429a1.803 1.803 0 0 0-.21-1.158c-.064-2.577-1.702-4.363-4.027-4.363-2.314 0-3.948 1.77-4.024 4.36a1.805 1.805 0 0 0-.213 1.162c.131.896.51 1.257.825 1.426.132.25.253.489.366.711l.011.021c.23.453.427.838.6 1.11.111.175.236.51.25.83.017.441-.183.57-.26.62-.734.464-3.313 2.046-4.225 2.605l-.323.198A2.6 2.6 0 0 0 2.15 18.41v2.41h14.207v-2.494h-3.343v-3zm5.493.85v-3.342h-1.3v3.343h-3.343v1.3h3.343v3.343h1.3v-3.343h3.343v-1.3h-3.343z"/></g></svg>