<svg width="23" height="13" viewBox="0 0 23 13" fill="none" xmlns="http://www.w3.org/2000/svg">
    <path opacity=".4" fill-rule="evenodd" clip-rule="evenodd" d="M23 6.5C23 2.91 20.303 0 16.976 0H6.024C2.697 0 0 2.91 0 6.5S2.697 13 6.024 13h10.952C20.303 13 23 10.09 23 6.5zM6.024 1.182h10.952l.232.006c2.615.13 4.697 2.459 4.697 5.312 0 2.937-2.207 5.318-4.929 5.318H6.024l-.232-.006c-2.614-.13-4.697-2.459-4.697-5.312 0-2.937 2.207-5.318 4.929-5.318z" fill="#000"/>
    <rect opacity=".9" x="1.096" y="1.182" width="20.809" height="10.636" rx="5.318" fill="#fff"/>
    <path fill-rule="evenodd" clip-rule="evenodd" d="M8.175 9.6c1.441 0 2.362-.965 2.362-2.472V6.4H8.295v.795h1.299l-.004.122c-.015.824-.577 1.377-1.4 1.377-.962 0-1.565-.824-1.565-2.165 0-1.32.591-2.145 1.535-2.145.692 0 1.175.372 1.37 1.046h.962c-.172-1.187-1.086-1.95-2.332-1.95-1.539 0-2.523 1.19-2.523 3.057 0 1.886.973 3.062 2.538 3.062zm4.447-.145v-5.83h-.966v5.83h.966zm2.299-2.38v2.38h-.966v-5.83h3.444v.877H14.92v1.725h2.264v.848h-2.264z" fill="#000"/>
</svg>
