<svg xmlns="http://www.w3.org/2000/svg" width="24" height="24" viewBox="0 0 24 24">
    <g fill="none" fill-rule="evenodd">
        <g>
            <g>
                <g>
                    <g>
                        <path d="M0 0H24V24H0z" transform="translate(-1216.000000, -227.000000) translate(928.000000, 162.000000) translate(14.000000, 58.000000) translate(274.000000, 7.000000)"/>
                        <path fill="#C8C8C8" d="M12 5c3.866 0 7 3.134 7 7s-3.134 7-7 7-7-3.134-7-7 3.134-7 7-7zm2.413 3.5L12 10.912 9.587 8.5 8.5 9.587 10.912 12 8.5 14.413 9.587 15.5 12 13.087l2.413 2.413 1.087-1.087L13.087 12 15.5 9.587 14.413 8.5z" transform="translate(-1216.000000, -227.000000) translate(928.000000, 162.000000) translate(14.000000, 58.000000) translate(274.000000, 7.000000)"/>
                    </g>
                </g>
            </g>
        </g>
    </g>
</svg>
