<svg width="9" height="9" viewBox="0 0 9 9" xmlns="http://www.w3.org/2000/svg">
<path fill-rule="evenodd" clip-rule="evenodd" d="M4.49995 0.343262C5.06701 1.56761 5.46201 2.55922 5.68494 3.3181C6.37572 3.5189 7.26256 3.86591 8.34334 4.3563L8.65664 4.49995C7.43283 5.06676 6.44155 5.46166 5.6828 5.68465C5.46166 6.44155 5.06676 7.43283 4.49995 8.65664L4.3563 8.34334C3.86591 7.26256 3.5189 6.37572 3.31526 5.6828C2.55922 5.46201 1.56761 5.06701 0.343262 4.49995L0.656565 4.3563C1.73734 3.86591 2.62419 3.5189 3.3171 3.31526C3.5189 2.62419 3.86591 1.73734 4.3563 0.656565L4.49995 0.343262Z" />
</svg>
