<svg width="15" height="15" fill="none" xmlns="http://www.w3.org/2000/svg">
    <g filter="url(#a)" fill-rule="evenodd" clip-rule="evenodd" fill="#fff">
        <path d="M9.543 11.776H2.022a.933.933 0 0 1-.946-.92V4.039c0-.512.427-.92.946-.92h7.521c.519 0 .946.408.946.92v1.698l2.55-1.378a.428.428 0 0 1 .633.373v5.26c0 .33-.354.522-.634.372L10.49 8.987v1.869c0 .512-.427.92-.946.92zm.946-3.615 2.457 1.328V5.234L10.49 6.562v1.6z"/>
        <path d="M13.213 4.75v5.29l-2.928-1.696v-2.28l2.928-1.314z"/>
    </g>
    <defs>
        <filter id="a" x=".076" y="2.119" width="14.596" height="10.658" filterUnits="userSpaceOnUse" color-interpolation-filters="sRGB">
            <feFlood flood-opacity="0" result="BackgroundImageFix"/>
            <feColorMatrix in="SourceAlpha" values="0 0 0 0 0 0 0 0 0 0 0 0 0 0 0 0 0 0 127 0" result="hardAlpha"/>
            <feOffset/>
            <feGaussianBlur stdDeviation=".5"/>
            <feColorMatrix values="0 0 0 0 0 0 0 0 0 0 0 0 0 0 0 0 0 0 0.4 0"/>
            <feBlend in2="BackgroundImageFix" result="effect1_dropShadow"/>
            <feBlend in="SourceGraphic" in2="effect1_dropShadow" result="shape"/>
        </filter>
    </defs>
</svg>
