<svg xmlns="http://www.w3.org/2000/svg" width="18" height="18" viewBox="0 0 18 18">
    <path fill="#303030" stroke="#303030" stroke-width=".4" d="M9.246 2.218c4.155 0 6.84 2.384 6.84 6.073-.004 3.352-2.72 6.069-6.073 6.072h0l-1.831.008c-.908.049-1.704.619-2.044 1.461h0l-.335.662-.508-.54C4.157 14.74 2.247 12.26 2.247 9.277c0-4.289 2.747-7.06 7-7.06zm0 1.04c-3.731 0-5.96 2.25-5.96 6.02 0 2.299 1.38 4.336 2.31 5.447.577-.864 1.544-1.387 2.583-1.394h0l1.832-.008c2.778-.002 5.031-2.253 5.035-5.032 0-3.104-2.223-5.033-5.8-5.033zm-.148 4.685c.397 0 .72.322.72.72 0 .397-.323.72-.72.72-.398 0-.72-.323-.72-.72 0-.398.322-.72.72-.72zm-2.83 0c.397 0 .72.322.72.72 0 .397-.323.72-.72.72-.399 0-.72-.323-.72-.72 0-.398.321-.72.72-.72zm5.66 0c.398 0 .72.322.72.72 0 .397-.322.72-.72.72-.397 0-.72-.323-.72-.72 0-.398.323-.72.72-.72z"/>
</svg>
