<svg width="32" height="32" fill="none" xmlns="http://www.w3.org/2000/svg">
    <path fill-rule="evenodd" clip-rule="evenodd" d="M5.68 16.004c.003 5.696 4.623 10.309 10.318 10.305 5.696-.003 10.309-4.621 10.306-10.317-.004-5.694-4.622-10.309-10.319-10.307-5.694.005-10.309 4.625-10.305 10.32z" fill="#fff"/>
    <path clip-rule="evenodd" d="M5.68 16.004c.003 5.696 4.623 10.309 10.318 10.305 5.696-.003 10.309-4.621 10.306-10.317-.004-5.694-4.622-10.309-10.319-10.307-5.694.005-10.309 4.625-10.305 10.32z" stroke="#141011" stroke-width=".667" stroke-linecap="round" stroke-linejoin="round"/>
    <g opacity=".01" fill-rule="evenodd" clip-rule="evenodd" fill="#EFC2C7">
        <path d="M8.346 16.218c0 .403.627.729 1.401.729s1.401-.327 1.401-.731c0-.404-.627-.73-1.403-.73-.772.003-1.4.33-1.4.732zM20.791 16.221c0 .404.628.73 1.401.73.774 0 1.402-.328 1.402-.731 0-.404-.628-.73-1.403-.73-.772 0-1.4.328-1.4.731z"/>
    </g>
    <g opacity=".01">
        <path fill-rule="evenodd" clip-rule="evenodd" d="M13.284 11.724s-.63.539-.658 1.775c-.014.63-.002 1.65.516 1.899.51.244.868-.083 1.01-.41.144-.328.42-1.477-.085-2.577-.306-.665-.783-.687-.783-.687z" fill="#141011"/>
        <path d="M13.284 11.724s-.63.539-.658 1.775c-.014.63-.002 1.65.516 1.899.51.244.868-.084 1.01-.41.144-.328.42-1.477-.085-2.577-.306-.666-.783-.687-.783-.687-1.492-.172-1.6 1.474-1.6 1.474" stroke="#141011" stroke-width=".667" stroke-linecap="round" stroke-linejoin="round"/>
        <path fill-rule="evenodd" clip-rule="evenodd" d="M18.954 11.728s-.63.539-.658 1.774c-.014.63-.003 1.65.516 1.9.51.243.868-.084 1.01-.411.144-.327.42-1.476-.085-2.577-.304-.665-.783-.686-.783-.686z" fill="#141011"/>
        <path d="M18.954 11.728s-.63.539-.658 1.774c-.014.63-.003 1.65.516 1.9.51.243.868-.084 1.01-.411.144-.327.42-1.476-.085-2.577-.305-.665-.783-.686-.783-.686-1.492-.173-1.6 1.474-1.6 1.474" stroke="#141011" stroke-width=".667" stroke-linecap="round" stroke-linejoin="round"/>
    </g>
    <path d="m13.761 17.592 4.42-.001s.094 1.776-.305 3.279c-.291 1.102-.848 2.055-1.9 2.057-1.054 0-1.612-.953-1.905-2.054-.402-1.506-.31-3.28-.31-3.28z" fill="#CB5735"/>
    <path d="M15.974 22.925c-1.053 0-1.611-.953-1.905-2.053.584-.612 1.364-.767 1.903-.769.539 0 1.387.194 1.903.765-.292 1.1-.848 2.056-1.901 2.057z" fill="#E58F95"/>
    <path d="M18.18 17.589s.016.316.006.797l-4.43.001c-.011-.478.005-.796.005-.796l4.42-.002z" fill="#fff"/>
    <path clip-rule="evenodd" d="M18.18 17.589s.285 5.335-2.206 5.335c-2.492.002-2.213-5.333-2.213-5.333l4.42-.002z" stroke="#141011" stroke-width=".667" stroke-linecap="round" stroke-linejoin="round"/>
    <path opacity=".01" d="M13.556 7.348s-1.465.181-2.052 1.266M18.268 7.348s1.026 0 2.052 1.266" stroke="#000" stroke-width=".667" stroke-linecap="round" stroke-linejoin="round"/>
    <path d="M17.335 16.598s-.643-1.35-1.364-1.35c-.72 0-1.364 1.35-1.364 1.35" stroke="#141011" stroke-width=".667" stroke-linecap="round" stroke-linejoin="round"/>
    <g opacity=".01" fill-rule="evenodd" clip-rule="evenodd">
        <path d="M13.825 11.502a.948.948 0 0 1 .95.15c.263.21.42.558.47.917.061.42-.026.852-.17 1.237a4.395 4.395 0 0 1-.685 1.185 6.415 6.415 0 0 1-.928.935 5.041 5.041 0 0 1-.379.297c-.153.105-.36.26-.55.189a2.478 2.478 0 0 1-.5-.358 6.011 6.011 0 0 1-.892-.967c-.466-.633-.893-1.46-.925-2.312-.012-.329.047-.676.248-.925a1.05 1.05 0 0 1 .844-.401c.642.01 1.082.512 1.464 1.04.181-.231.361-.48.573-.672.142-.128.305-.244.48-.315z" fill="#FF99B9"/>
        <path d="M13.825 11.502a.948.948 0 0 1 .95.15c.263.21.42.558.47.917.061.42-.026.852-.17 1.237a4.395 4.395 0 0 1-.685 1.185 6.415 6.415 0 0 1-.928.935 5.041 5.041 0 0 1-.379.297c-.153.105-.36.26-.55.189a2.478 2.478 0 0 1-.5-.358 6.011 6.011 0 0 1-.892-.967c-.466-.633-.893-1.46-.925-2.312-.012-.329.047-.676.248-.925a1.05 1.05 0 0 1 .844-.401c.642.01 1.082.512 1.464 1.04.181-.231.361-.48.573-.672.142-.128.305-.244.48-.315z" fill="#EF96C0" stroke="#EB5C97" stroke-width=".667" stroke-linecap="round" stroke-linejoin="round"/>
        <path d="M11.395 12.743c-.106.32-.348.512-.54.429-.192-.084-.262-.411-.157-.731.107-.32.349-.512.54-.429.195.084.264.411.157.731z" fill="#fff"/>
    </g>
    <g opacity=".01" fill-rule="evenodd" clip-rule="evenodd">
        <path d="M20.378 11.502a.947.947 0 0 1 .95.15c.262.21.419.558.47.917.06.42-.026.852-.17 1.237a4.398 4.398 0 0 1-.685 1.185 6.41 6.41 0 0 1-.928.935 5.041 5.041 0 0 1-.38.297c-.152.105-.36.26-.549.189a2.473 2.473 0 0 1-.5-.358 6.007 6.007 0 0 1-.892-.967c-.466-.633-.893-1.46-.925-2.312-.012-.329.046-.676.247-.925a1.05 1.05 0 0 1 .845-.401c.642.01 1.081.512 1.464 1.04.181-.231.36-.48.572-.672.14-.128.304-.244.48-.315z" fill="#FF99B9"/>
        <path d="M20.378 11.502a.947.947 0 0 1 .95.15c.262.21.419.558.47.917.06.42-.026.852-.17 1.237a4.398 4.398 0 0 1-.685 1.185 6.41 6.41 0 0 1-.928.935 5.041 5.041 0 0 1-.38.297c-.152.105-.36.26-.549.189a2.473 2.473 0 0 1-.5-.358 6.007 6.007 0 0 1-.892-.967c-.466-.633-.893-1.46-.925-2.312-.012-.329.046-.676.247-.925a1.05 1.05 0 0 1 .845-.401c.642.01 1.081.512 1.464 1.04.181-.231.36-.48.572-.672.14-.128.304-.244.48-.315z" fill="#EF96C0" stroke="#EB5C97" stroke-width=".667" stroke-linecap="round" stroke-linejoin="round"/>
        <path d="M17.948 12.743c-.107.32-.348.512-.54.429-.193-.084-.262-.411-.157-.731.107-.32.349-.512.54-.429.193.084.262.411.157.731z" fill="#fff"/>
    </g>
    <path fill-rule="evenodd" clip-rule="evenodd" d="M10.967 11.742c-.371-.07-.76.05-1.03.316-.257.257-.376.626-.376.99 0 .424.163.835.385 1.19.216.344.49.648.792.915.051.046.103.09.156.133.363.299.765.542 1.18.76.152.08.307.16.465.225.187.077.441.192.64.089.187-.12.345-.28.498-.441.319-.34.602-.713.838-1.115.418-.708.761-1.6.66-2.447-.04-.327-.158-.658-.42-.87a1.25 1.25 0 0 0-1.001-.247c-.71.125-1.12.697-1.46 1.288-.238-.196-.475-.41-.742-.562a1.947 1.947 0 0 0-.585-.224z" fill="#C00"/>
    <path fill-rule="evenodd" clip-rule="evenodd" d="M10.258 12.627c-.176.292-.158.625.04.742.2.117.506-.023.682-.316.176-.292.158-.625-.041-.742-.197-.117-.503.025-.681.316z" fill="#fff"/>
    <path fill-rule="evenodd" clip-rule="evenodd" d="M20.993 11.742c.372-.07.761.05 1.03.316.258.257.377.626.377.99 0 .424-.164.835-.386 1.19a4.224 4.224 0 0 1-.791.915c-.052.046-.104.09-.157.133a6.802 6.802 0 0 1-1.179.76c-.153.08-.308.16-.466.225-.187.077-.441.192-.64.089a2.79 2.79 0 0 1-.498-.441 6.324 6.324 0 0 1-.838-1.115c-.418-.708-.76-1.6-.66-2.447.04-.327.159-.658.42-.87a1.25 1.25 0 0 1 1.001-.247c.71.125 1.12.697 1.46 1.288.237-.196.475-.41.742-.562a1.93 1.93 0 0 1 .585-.224z" fill="#C00"/>
    <path fill-rule="evenodd" clip-rule="evenodd" d="M18.223 12.551c-.24.244-.566.308-.73.144-.163-.164-.1-.494.138-.74.24-.243.565-.307.729-.144.163.166.103.496-.137.74z" fill="#fff"/>
</svg>
