<svg xmlns="http://www.w3.org/2000/svg" width="18" height="18" viewBox="0 0 18 18">
    <path fill="#303030" stroke="#303030" stroke-width=".4" d="M10.665 2.082c.864.004 1.69.353 2.296.969.605.616.94 1.449.927 2.313.149.267.204.577.158.88-.04.474-.267.913-.63 1.222-.307.566-.528.927-.72 1.231-.112.176-.154.538.017.658.312.218 1.994 1.376 2.964 2.043.575.396.919 1.049.918 1.747h0v2.175h-2.25v-1.04h1.21v-1.135c0-.355-.175-.688-.468-.89-.972-.669-2.657-1.83-2.97-2.048-.616-.51-.745-1.403-.3-2.066.224-.355.437-.709.743-1.279h0l.07-.13.128-.074c.032-.018.195-.133.26-.565.014-.092-.008-.187-.063-.263h0l-.106-.139v-.174c.082-1.134-.7-2.149-1.817-2.358-.21-.384-.48-.733-.797-1.035.142-.023.286-.037.43-.042zm-4.955.44c1.006-.587 2.251-.586 3.257.003 1.005.59 1.614 1.675 1.592 2.84.148.268.203.577.157.879-.04.474-.266.912-.628 1.22-.315.58-.533.937-.722 1.234-.111.175-.153.537.018.657.293.206 1.8 1.242 2.785 1.92h0l.179.123c.575.396.918 1.05.918 1.747h0v2.175H1.405v-2.36c0-.582.286-1.127.765-1.456h0l.203-.14c.977-.673 2.607-1.794 2.914-2.009.17-.12.129-.482.018-.657-.193-.305-.414-.666-.721-1.232-.363-.308-.589-.747-.63-1.221-.046-.304.01-.616.16-.884-.02-1.166.59-2.25 1.596-2.838zm2.787.933c-.703-.439-1.594-.444-2.302-.013S5.083 4.667 5.15 5.493h0v.174l-.105.163c-.055.076-.077.172-.061.265.063.43.226.545.258.563h0l.128.074.07.13c.306.57.519.924.744 1.28.444.663.314 1.555-.3 2.065-.308.215-1.942 1.34-2.92 2.014h0l-.205.14c-.197.136-.314.36-.314.599h0v1.32h9.78v-1.135c0-.355-.174-.688-.466-.89h0l-.18-.123c-.988-.68-2.498-1.72-2.791-1.925-.623-.506-.753-1.404-.301-2.065.19-.3.412-.663.744-1.28h0l.07-.129.126-.074c.16-.145.254-.35.26-.565.016-.093-.007-.188-.062-.264h0L9.52 5.69v-.174c.076-.826-.32-1.623-1.023-2.062z"/>
</svg>
