<svg xmlns="http://www.w3.org/2000/svg" width="24" height="24" viewBox="0 0 24 24">
    <g fill="none" fill-rule="evenodd">
        <g>
            <g fill="#000" fill-rule="nonzero">
                <path d="M0.65 1.821L2.995 3.539 0.65 5.257z" transform="translate(4.96 2) translate(7.04)"/>
                <path d="M1.3 3.103l.595.436-.595.436v-.872zM0 .54v6l4.094-3L0 .539z" transform="translate(4.96 2) translate(7.04)"/>
            </g>
            <path stroke="#000" stroke-width="1.354" d="M13.102 7.045c.597 1.03.943 2.223.943 3.5 0 1.276-.346 2.47-.943 3.5-.615 1.063-1.5 1.947-2.562 2.562-1.03.597-2.224.943-3.5.943-1.277 0-2.47-.346-3.5-.943-1.063-.615-1.948-1.5-2.563-2.562-.596-1.03-.943-2.224-.943-3.5 0-1.277.347-2.47.943-3.5.615-1.063 1.5-1.948 2.563-2.563 1.03-.596 2.223-.943 3.5-.943" transform="translate(4.96 2)"/>
        </g>
    </g>
</svg>
