<svg xmlns="http://www.w3.org/2000/svg" width="18" height="18" viewBox="0 0 18 18">
    <g fill="none" fill-rule="evenodd" transform="translate(.5 .5)">
        <circle cx="8.5" cy="8.5" r="8.5" fill="#587DE4"/>
        <path fill="#FFF" d="M10.122 4.006l.028.02 2.824 3.024c.032.035.032.091 0 .126l-.743.795c-.024.026-.06.033-.09.02l-.028-.02-.408-.437L9.928 9.79c.013.03.02.062.019.096l-.066 2.122c-.003.048-.032.061-.065.027l-1.891-2.026-2.367 2.526L5 11.938l2.367-2.527L5.479 7.39c-.033-.035-.022-.066.023-.07l1.983-.07c.033 0 .065.007.093.022l2.104-1.903-.392-.42c-.033-.036-.033-.092 0-.127l.743-.795c.024-.026.06-.032.089-.02z"/>
    </g>
</svg>
