<svg width="24" height="24" viewBox="0 0 24 24" fill="none" xmlns="http://www.w3.org/2000/svg">
    <g opacity=".01" fill="#fff">
        <path d="M0 0h24v24H0z"/>
        <path opacity=".7" d="M2 2h20v20H2z"/>
    </g>
    <path d="M14.843 13.17a.624.624 0 0 0-.853.228 2.76 2.76 0 0 1-4.78 0 .624.624 0 1 0-1.08.625 4.008 4.008 0 0 0 6.94 0 .624.624 0 0 0-.227-.852z" fill="#303030"/>
    <circle cx="14.266" cy="10.464" r=".96" fill="#303030"/>
    <circle cx="8.934" cy="10.464" r=".96" fill="#303030"/>
    <path fill-rule="evenodd" clip-rule="evenodd" d="M11.6 3.22a8.88 8.88 0 1 0 8.88 8.88 8.89 8.89 0 0 0-8.88-8.88zm0 16.512a7.632 7.632 0 1 1 7.632-7.632 7.64 7.64 0 0 1-7.632 7.632z" fill="#303030"/>
    <path d="M11.6 3.22v-.1.1zm8.88 8.88h.1-.1zm-8.88 7.632v.1-.1zm7.632-7.632h.1-.1zM11.6 3.12a8.98 8.98 0 0 0-8.98 8.98h.2a8.78 8.78 0 0 1 8.78-8.78v-.2zM2.62 12.1a8.98 8.98 0 0 0 8.98 8.98v-.2a8.78 8.78 0 0 1-8.78-8.78h-.2zm8.98 8.98a8.98 8.98 0 0 0 8.98-8.98h-.2a8.78 8.78 0 0 1-8.78 8.78v.2zm8.98-8.98a8.99 8.99 0 0 0-8.98-8.98v.2a8.79 8.79 0 0 1 8.78 8.78h.2zm-8.98 7.532a7.532 7.532 0 0 1-6.96-4.649l-.184.077a7.732 7.732 0 0 0 7.144 4.772v-.2zm-6.96-4.649a7.532 7.532 0 0 1 1.633-8.209l-.142-.141a7.732 7.732 0 0 0-1.675 8.427l.185-.077zm1.633-8.209a7.532 7.532 0 0 1 8.209-1.633l.076-.185a7.732 7.732 0 0 0-8.427 1.677l.142.141zm8.209-1.633a7.532 7.532 0 0 1 4.65 6.959h.2a7.732 7.732 0 0 0-4.774-7.144l-.076.185zm4.65 6.959a7.54 7.54 0 0 1-7.532 7.532v.2a7.74 7.74 0 0 0 7.731-7.732h-.2z" fill="#303030"/>
</svg>
