<svg xmlns="http://www.w3.org/2000/svg" xmlns:xlink="http://www.w3.org/1999/xlink" width="68" height="25" viewBox="0 0 68 25">
    <defs>
        <path id="491ttiqqea" d="M0.05 0.005L15.806 0.005 15.806 23.437 0.05 23.437z"/>
        <path id="34dtl04zxc" d="M0 0.005L15.756 0.005 15.756 23.437 0 23.437z"/>
        <path id="qto684ri0e" d="M0.004 0.005L5.39 0.005 5.39 23.437 0.004 23.437z"/>
        <path id="o7652ipedg" d="M0.158 0.005L20.627 0.005 20.627 23.437 0.158 23.437z"/>
    </defs>
    <g fill="none" fill-rule="evenodd">
        <g transform="translate(51.257 .164)">
            <mask id="ifp10n3lyb" fill="#fff">
                <use xlink:href="#491ttiqqea"/>
            </mask>
            <path fill="#07B53B" d="M14.863 23.437c.52 0 .943-.422.943-.943v-3.501c0-.519-.424-.943-.943-.943H5.437v-3.636h9.426c.52 0 .943-.422.943-.943v-3.5c0-.52-.424-.943-.943-.943H5.437V5.392h9.426c.52 0 .943-.422.943-.943V.948c0-.519-.424-.943-.943-.943H.993C.473.005.05.427.05.948v21.546c0 .52.422.943.943.943h13.87z" mask="url(#ifp10n3lyb)"/>
        </g>
        <g transform="translate(0 .164)">
            <mask id="sbopz6bayd" fill="#fff">
                <use xlink:href="#34dtl04zxc"/>
            </mask>
            <path fill="#07B53B" d="M14.813 23.437c.52 0 .943-.422.943-.943v-3.501c0-.519-.424-.943-.943-.943H5.387V.948c0-.519-.425-.943-.943-.943H.943C.422.005 0 .427 0 .948v21.546c0 .52.422.943.943.943H14.813" mask="url(#sbopz6bayd)"/>
        </g>
        <g transform="translate(18.716 .164)">
            <mask id="bte6mzhngf" fill="#fff">
                <use xlink:href="#qto684ri0e"/>
            </mask>
            <path fill="#07B53B" d="M4.448.005H.946c-.52 0-.942.422-.942.943v21.546c0 .52.422.943.942.943h3.502c.52 0 .942-.422.942-.943V.948c0-.521-.422-.943-.942-.943" mask="url(#bte6mzhngf)"/>
        </g>
        <g transform="translate(27.315 .164)">
            <mask id="i16d7pij2h" fill="#fff">
                <use xlink:href="#o7652ipedg"/>
            </mask>
            <path fill="#07B53B" d="M19.684.005h-3.501c-.52 0-.943.422-.943.943v12.797L5.382.432C5.36.398 5.334.365 5.307.334L5.3.328l-.056-.06-.018-.015C5.209.238 5.192.223 5.175.21L5.149.19C5.133.18 5.117.168 5.1.157L5.071.14 5.019.11l-.03-.014C4.97.087 4.951.079 4.932.072L4.903.06 4.845.042 4.812.034C4.794.029 4.775.024 4.756.02l-.04-.006L4.665.01l-.05-.002-.032-.002H1.1C.58.005.158.427.158.948v21.546c0 .52.422.943.942.943h3.502c.52 0 .942-.422.942-.943V9.701l9.87 13.33c.069.095.152.174.244.237l.01.007.06.036.027.015.046.022.046.02.03.011c.022.008.043.015.065.021l.014.004c.078.02.16.033.246.033h3.482c.52 0 .943-.422.943-.943V.948c0-.521-.422-.943-.943-.943" mask="url(#i16d7pij2h)"/>
        </g>
    </g>
</svg>
