<svg width="11" height="11" viewBox="0 0 11 11" xmlns="http://www.w3.org/2000/svg">
<path fill-rule="evenodd" clip-rule="evenodd" d="M7.89831 1.64893C8.18177 1.82856 8.44677 2.04068 8.68564 2.27956C9.54623 3.14014 10.0195 4.28356 10.0195 5.50023C10.0195 6.7169 9.54623 7.86032 8.68564 8.72027C8.4474 8.95915 8.18177 9.17191 7.89831 9.35154L7.45496 8.65148C7.68746 8.50433 7.90468 8.33106 8.10024 8.13487C8.80412 7.43098 9.19142 6.49587 9.19142 5.50023C9.19142 4.5046 8.80412 3.56885 8.10024 2.86496C7.90404 2.6694 7.68746 2.4955 7.45496 2.34835L7.89831 1.64893ZM5.79601 5.36479C5.89611 5.42735 5.89611 5.57312 5.79601 5.63568L1.75463 8.16154C1.64824 8.22803 1.51025 8.15155 1.51025 8.0261V2.97437C1.51025 2.84892 1.64824 2.77243 1.75463 2.83892L5.79601 5.36479ZM7.3345 3.63127C7.19627 3.49241 7.04212 3.36946 6.87777 3.265L6.43442 3.96442C6.5478 4.0364 6.65355 4.12113 6.7491 4.21668C7.4568 4.92438 7.4568 6.07608 6.74973 6.78379C6.65355 6.87934 6.54717 6.96406 6.43442 7.03604L6.87777 7.73547C7.04212 7.63164 7.19563 7.5087 7.3345 7.36983C8.36517 6.33853 8.36517 4.66194 7.3345 3.63127Z" />
</svg>
