<svg width="11" height="11" viewBox="0 0 11 11" xmlns="http://www.w3.org/2000/svg">
<path fill-rule="evenodd" clip-rule="evenodd" d="M4.26073 1.27246L0.44043 6.06707H2.71935L2.45641 9.72797L6.27671 4.93336H3.99779L4.26073 1.27246ZM7.89841 1.64891C8.18187 1.82854 8.44686 2.04066 8.68574 2.27954C9.54633 3.14013 10.0196 4.28354 10.0196 5.50022C10.0196 6.71689 9.54633 7.8603 8.68574 8.72026C8.4475 8.95913 8.18187 9.17189 7.89841 9.35152L7.45505 8.65146C7.68756 8.50431 7.90478 8.33105 8.10034 8.13485C8.80422 7.43097 9.19152 6.49585 9.19152 5.50022C9.19152 4.50458 8.80422 3.56883 8.10034 2.86494C7.90414 2.66938 7.68756 2.49548 7.45505 2.34834L7.89841 1.64891ZM6.87787 3.26498C7.04221 3.36945 7.19637 3.49239 7.3346 3.63126C8.36526 4.66192 8.36526 6.33851 7.3346 7.36981C7.19573 7.50868 7.04221 7.63162 6.87787 7.73545L6.43452 7.03603C6.54726 6.96404 6.65364 6.87932 6.74983 6.78377C7.4569 6.07607 7.4569 4.92437 6.74919 4.21666C6.65364 4.12111 6.5479 4.03639 6.43452 3.96441L6.87787 3.26498Z" />
</svg>
