<svg width="32" height="32" fill="none" xmlns="http://www.w3.org/2000/svg">
    <path fill-rule="evenodd" clip-rule="evenodd" d="M5.68 15.998c.003 5.695 4.623 10.308 10.318 10.305 5.696-.004 10.309-4.622 10.306-10.318C26.3 10.291 21.681 5.676 15.984 5.68c-5.694.002-10.309 4.622-10.305 10.318z" fill="#fff"/>
    <g opacity=".01" fill-rule="evenodd" clip-rule="evenodd" fill="#EFC2C7">
        <path d="M8.368 16.069c0 .403.628.729 1.402.729.773 0 1.4-.328 1.4-.731 0-.404-.627-.73-1.402-.73-.774.002-1.402.33-1.4.732zM20.811 16.072c0 .404.628.73 1.404.73.773 0 1.401-.328 1.401-.732 0-.403-.628-.729-1.403-.729-.774 0-1.402.328-1.402.731z"/>
    </g>
    <g opacity=".01">
        <path fill-rule="evenodd" clip-rule="evenodd" d="M13.306 11.575s-.63.539-.658 1.775c-.014.63-.002 1.65.515 1.899.51.243.868-.084 1.01-.41.145-.328.42-1.477-.085-2.578-.304-.665-.782-.686-.782-.686z" fill="#141011"/>
        <path d="M13.306 11.575s-.63.539-.658 1.775c-.015.63-.002 1.65.515 1.899.51.243.868-.084 1.01-.411.145-.327.42-1.476-.085-2.577-.304-.665-.782-.686-.782-.686-1.492-.173-1.6 1.474-1.6 1.474" stroke="#141011" stroke-width=".667" stroke-linecap="round" stroke-linejoin="round"/>
        <path fill-rule="evenodd" clip-rule="evenodd" d="M18.977 11.579s-.63.538-.658 1.774c-.015.63-.004 1.65.515 1.9.51.243.868-.084 1.01-.411.144-.328.42-1.476-.085-2.577-.304-.665-.782-.686-.782-.686z" fill="#141011"/>
        <path d="M18.977 11.579s-.63.538-.659 1.774c-.014.63-.003 1.65.516 1.9.51.243.868-.084 1.01-.411.144-.328.42-1.476-.085-2.577-.304-.665-.782-.686-.782-.686-1.492-.173-1.601 1.474-1.601 1.474" stroke="#141011" stroke-width=".667" stroke-linecap="round" stroke-linejoin="round"/>
    </g>
    <g opacity=".01">
        <path d="m13.364 18.772 5.255-.002s.112 1.798-.363 3.318c-.348 1.115-1.008 2.08-2.262 2.082-1.253 0-1.915-.965-2.264-2.078-.474-1.523-.366-3.32-.366-3.32z" fill="#CB5735"/>
        <path d="M15.996 24.169c-1.254 0-1.915-.966-2.264-2.08.694-.618 1.622-.776 2.263-.776.64 0 1.65.195 2.263.775-.348 1.113-1.01 2.08-2.262 2.08z" fill="#E58F95"/>
        <path d="M18.62 18.77s.02.322.007.805l-5.27.002a9.866 9.866 0 0 1 .006-.805l5.257-.002z" fill="#fff"/>
        <path clip-rule="evenodd" d="M18.62 18.77s.337 5.399-2.625 5.4c-2.963.002-2.632-5.397-2.632-5.397l5.256-.003z" stroke="#141011" stroke-width=".667" stroke-linecap="round" stroke-linejoin="round"/>
    </g>
    <path d="m12.706 17.888 6.569-.002s.139 1.862-.453 3.44c-.434 1.155-1.261 2.156-2.828 2.156s-2.394-1-2.831-2.155c-.593-1.577-.457-3.44-.457-3.44z" fill="#CB5735"/>
    <path d="M15.995 23.482c-1.566 0-2.393-1-2.83-2.155.867-.642 2.026-.806 2.827-.806.8 0 2.063.203 2.83.804-.435 1.154-1.26 2.155-2.827 2.157z" fill="#E58F95"/>
    <path d="M19.276 17.884s.025.333.01.836l-6.586.002c-.016-.503.007-.836.007-.836l6.57-.002z" fill="#fff"/>
    <path clip-rule="evenodd" d="M19.276 17.884s.424 5.595-3.279 5.596c-3.703.002-3.29-5.594-3.29-5.594l6.57-.002z" stroke="#141011" stroke-width=".667" stroke-linecap="round" stroke-linejoin="round"/>
    <path d="M13.522 7.645s-1.465.181-2.052 1.266M18.231 7.645s1.027 0 2.053 1.266M19.708 11.824l-2.395 2.762 2.893 1.067M20.562 13.634l-3.25.951M12.28 11.824l2.395 2.762-2.892 1.067M11.426 13.634l3.249.951" stroke="#000" stroke-width=".667" stroke-linecap="round" stroke-linejoin="round"/>
    <path d="M17.357 16.45s-.644-1.35-1.364-1.35c-.72 0-1.366 1.35-1.366 1.35" stroke="#141011" stroke-width=".667" stroke-linecap="round" stroke-linejoin="round"/>
    <path clip-rule="evenodd" d="M5.68 15.998c.003 5.695 4.623 10.308 10.318 10.305 5.696-.004 10.309-4.622 10.306-10.318C26.3 10.291 21.681 5.676 15.984 5.68c-5.694.002-10.309 4.622-10.305 10.318z" stroke="#141011" stroke-width=".667" stroke-linecap="round" stroke-linejoin="round"/>
</svg>
