<svg xmlns="http://www.w3.org/2000/svg" width="35" height="35" viewBox="0 0 35 35">
    <g fill="none" fill-rule="evenodd">
        <path stroke="#FFF" stroke-width="6.5" d="M17.329 5C9.979 5 4 9.852 4 15.817c0 5.347 4.742 9.825 11.147 10.671.434.094 1.025.286 1.174.657.135.337.088.865.044 1.205l-.19 1.142c-.059.336-.269 1.317 1.154.718 1.423-.6 7.676-4.52 10.472-7.738 1.931-2.119 2.857-4.268 2.857-6.655C30.658 9.852 24.678 5 17.328 5z"/>
        <path fill="#FFF" stroke="#111" stroke-width="1.8" d="M17.329 5C9.979 5 4 9.852 4 15.817c0 5.347 4.742 9.825 11.147 10.671.434.094 1.025.286 1.174.657.135.337.088.865.044 1.205l-.19 1.142c-.059.336-.269 1.317 1.154.718 1.423-.6 7.676-4.52 10.472-7.738 2.052-2.113 2.857-4.268 2.857-6.655C30.658 9.852 24.678 5 17.328 5z"/>
        <g fill="#111" stroke="#121111" stroke-width=".15">
            <path d="M17.853 6.327c.14 0 .254-.114.254-.255v-.945c0-.14-.114-.255-.254-.255h-2.545v-.981h2.545c.14 0 .254-.114.254-.255v-.945c0-.14-.114-.255-.254-.255h-2.545v-.982h2.545c.14 0 .254-.114.254-.254V.255c0-.14-.114-.255-.254-.255h-3.74 0-.005c-.14 0-.255.114-.255.255V.26h0v5.808h0v.004c0 .14.114.255.255.255h3.745zM4 6.327c.14 0 .254-.114.254-.255v-.945c0-.14-.114-.255-.254-.255H1.454V.255C1.454.115 1.34 0 1.2 0H.254C.114 0 0 .114 0 .255v5.813h0v.004c0 .14.114.255.254.255H4M6.254 0H5.31c-.14 0-.255.114-.255.255v5.817c0 .14.114.255.255.255h.945c.14 0 .255-.114.255-.255V.255C6.509.114 6.395 0 6.254 0M12.69 0h-.945c-.141 0-.255.114-.255.255V3.71L8.828.115 8.808.09 8.806.087 8.791.071 8.786.067 8.772.055 8.766.05 8.752.041 8.744.036 8.73.028 8.722.024 8.707.018c-.003 0-.005-.002-.008-.003L8.683.01 8.674.008 8.66.005 8.65.003 8.634 0H8.62L8.613 0h-.94c-.141 0-.255.114-.255.255v5.817c0 .14.114.255.254.255h.946c.14 0 .254-.114.254-.255V2.618l2.665 3.6c.019.025.041.046.066.063l.003.002.016.01.007.004.013.006.012.005.008.003.018.006h.003c.021.006.044.01.067.01h.94c.14 0 .254-.114.254-.255V.255c0-.141-.113-.255-.254-.255" transform="translate(8.373 12.934)"/>
        </g>
    </g>
</svg>
